<svg id="Capa_1" data-name="Capa 1" xmlns="http://www.w3.org/2000/svg" xmlns:xlink="http://www.w3.org/1999/xlink" viewBox="0 0 175 156.18"><defs><pattern id="Motivo_nuevo_2" data-name="Motivo nuevo 2" width="14" height="14.05" patternUnits="userSpaceOnUse" viewBox="0 0 14 14.05"><rect width="14" height="14.05" style="fill:none"/><polygon points="5.42 14.68 5.26 14.68 5.86 13.97 6.57 13.97 6.44 14.13 5.88 14.13 5.42 14.68" style="fill:#2598dd"/><path d="M18.19,14H17l-.13.16h1.16Zm-2.33,0H14.7l-.13.16h1.17Zm-2.32,0H12.38l-.13.16h1.16Zm-2.33,0H10.05l-.13.16h1.17ZM8.89,14H7.73l-.13.16H8.76Z" style="fill:#2598dd"/><path d="M4.19,14H3l-.13.16H4.06ZM1.86,14H.7l-.13.16H1.74ZM-.46,14H-1.62l-.13.16H-.59Zm-2.33,0H-3.95l-.13.16h1.17Zm-2.32,0H-6.27l-.13.16h1.16Z" style="fill:#2598dd"/><path d="M20.4,14H19.24l-.13.16h1.16Zm-2.33,0H16.91l-.13.16H18Zm-2.32,0H14.59l-.13.16h1.16Zm-2.33,0H12.26l-.12.16H13.3ZM11.1,14H9.94l-.13.16H11Z" style="fill:#2598dd"/><path d="M10.64,11.09h-.16l-1,1.17h.15Zm1.95-2.32h-.15l-1,1.16h.15Zm1.95-2.33h-.15l-1,1.17h.15Zm1.95-2.32h-.15l-1,1.16h.15Zm2-2.33h-.15L17.31,3h.15Z" style="fill:#2598dd"/><polygon points="8.14 14.13 7.43 14.13 7.56 13.97 8.12 13.97 8.58 13.42 8.74 13.42 8.14 14.13" style="fill:#2598dd"/><path d="M6.4,14H5.24l-.13.16H6.27ZM4.07,14H2.91l-.13.16H4ZM1.75,14H.59l-.13.16H1.62ZM-.58,14H-1.74l-.12.16H-.7ZM-2.9,14H-4.06l-.13.16H-3Z" style="fill:#2598dd"/><path d="M-3.36,11.09h-.16l-1,1.17h.15Zm2-2.32h-.15l-1,1.16h.15Zm2-2.33H.39l-1,1.17h.15Zm2-2.32H2.34l-1,1.16h.15Zm2-2.33H4.29L3.31,3h.15Z" style="fill:#2598dd"/><polygon points="5.42 0.63 5.26 0.63 5.86 -0.08 6.57 -0.08 6.44 0.08 5.88 0.08 5.42 0.63" style="fill:#2598dd"/><path d="M18.19-.08H17L16.9.08h1.16Zm-2.33,0H14.7l-.13.16h1.17Zm-2.32,0H12.38l-.13.16h1.16Zm-2.33,0H10.05L9.92.08h1.17Zm-2.32,0H7.73L7.6.08H8.76Z" style="fill:#2598dd"/><path d="M10.69,11.09h-.15l-1,1.17h.15Zm2-2.32h-.15l-1,1.16h.15Zm1.95-2.33h-.15l-1,1.17h.15Zm1.95-2.32h-.15l-1,1.16h.15Zm1.95-2.33h-.15L17.36,3h.15Z" style="fill:#2598dd"/><path d="M4.19-.08H3L2.9.08H4.06Zm-2.33,0H.7L.57.08H1.74Zm-2.32,0H-1.62l-.13.16H-.59Zm-2.33,0H-3.95l-.13.16h1.17Zm-2.32,0H-6.27L-6.4.08h1.16Z" style="fill:#2598dd"/><path d="M-3.31,11.09h-.15l-1,1.17h.15Zm2-2.32h-.15l-1,1.16h.15Zm2-2.33H.44l-1,1.17h.15Zm2-2.32H2.39l-1,1.16h.15Zm2-2.33H4.34L3.36,3h.15Z" style="fill:#2598dd"/><path d="M20.4-.08H19.24l-.13.16h1.16Zm-2.33,0H16.91l-.13.16H18Zm-2.32,0H14.59l-.13.16h1.16Zm-2.33,0H12.26l-.12.16H13.3Zm-2.32,0H9.94L9.81.08H11Z" style="fill:#2598dd"/><polygon points="8.14 0.08 7.43 0.08 7.56 -0.08 8.12 -0.08 8.58 -0.63 8.74 -0.63 8.14 0.08" style="fill:#2598dd"/><path d="M6.4-.08H5.24L5.11.08H6.27Zm-2.33,0H2.91L2.78.08H4Zm-2.32,0H.59L.46.08H1.62Zm-2.33,0H-1.74l-.12.16H-.7Zm-2.32,0H-4.06l-.13.16H-3Z" style="fill:#2598dd"/></pattern></defs><g id="Capa_2" data-name="Capa 2" style="opacity:0.5"><g id="Capa_1-2" data-name="Capa 1-2"><path d="M44.94,30.78A65.12,65.12,0,0,0,27.12,58.66,64.57,64.57,0,0,0,40.67,81.38c1.14-3.2,3.21-7.27,7.22-9.54,7.32-4.14,14,1.64,28.46,3.63a70.17,70.17,0,0,0,33.83-3.86A63.63,63.63,0,0,0,131.49,58a61.7,61.7,0,0,0,10.9-14.39c-2-3-17.17-25.88-46.85-29.28C92.52,14,66.13,11.41,44.94,30.78ZM116.86,28a4.66,4.66,0,1,1-4.65,4.66h0A4.65,4.65,0,0,1,116.86,28Z" style="fill:url(#Motivo_nuevo_2)"/><path d="M40.59,25.72A68.4,68.4,0,0,1,75.08,12.91a64.68,64.68,0,0,1,31.42,1.27c-2-1.55-30.24-22.5-64.26-10.48C11,14.75,1.12,44.35.08,47.65a10,10,0,0,0,6.1,10.58,10,10,0,0,0,12.48-5.39A68.31,68.31,0,0,1,40.59,25.72Z" style="fill:url(#Motivo_nuevo_2)"/><path d="M56.08,91.78a24.48,24.48,0,0,0,14.13-15l-9.72-3.29A24.43,24.43,0,0,1,56.08,91.78Z" style="fill:url(#Motivo_nuevo_2)"/><path d="M173.41,95.91a65.32,65.32,0,0,0-25.62-38.16C139.9,82.67,118.4,100.6,93.3,103.33,65,106.41,37.26,89.59,26.16,62c-2.93,9.74-4.72,39.15,13.07,61.86C68.3,161,117.56,165.79,167.69,140A65.2,65.2,0,0,0,173.41,95.91Z" style="fill:url(#Motivo_nuevo_2)"/></g></g><path d="M21.54,41.47H34a0,0,0,0,1,0,0v6.67a6.22,6.22,0,0,1-6.22,6.22h0a6.22,6.22,0,0,1-6.22-6.22V41.47A0,0,0,0,1,21.54,41.47Z" transform="translate(75.67 20.16) rotate(90)" style="fill:#e8bb89"/><path d="M35.71,55.65H27.53a7.74,7.74,0,0,1,0-15.47h8.18ZM27.53,43.21a4.71,4.71,0,1,0,0,9.41h5.16V43.21Z" style="fill:#17202a"/><path d="M81.14,41.47H93.58a0,0,0,0,1,0,0v6.67a6.22,6.22,0,0,1-6.22,6.22h0a6.22,6.22,0,0,1-6.22-6.22V41.47A0,0,0,0,1,81.14,41.47Z" transform="translate(39.44 135.27) rotate(-90)" style="fill:#e8bb89"/><path d="M87.58,55.65H79.4V40.18h8.18a7.74,7.74,0,0,1,0,15.47Zm-5.16-3h5.16a4.71,4.71,0,1,0,0-9.41H82.42Z" style="fill:#17202a"/><rect x="45.83" y="79.09" width="23.46" height="17.43" style="fill:#dbad7f"/><path d="M70.8,98H44.31V77.58H70.8ZM47.34,95H67.77V80.6H47.34Z" style="fill:#17202a"/><path d="M29.57,25.3h56a0,0,0,0,1,0,0V56.86a28,28,0,0,1-28,28h0a28,28,0,0,1-28-28V25.3A0,0,0,0,1,29.57,25.3Z" style="fill:#edbf8e"/><path d="M57.56,86.36a29.54,29.54,0,0,1-29.5-29.5V23.78h59V56.86A29.53,29.53,0,0,1,57.56,86.36ZM31.08,26.81V56.86a26.48,26.48,0,0,0,53,0v-30Z" style="fill:#17202a"/><path d="M23.89,39.36s-4.07-12.59,0-19.7S37.22,1.75,53.82,1.5,76.26,9.09,76.26,9.09A11.37,11.37,0,0,0,80.91,11c3.32.77,10.22,5.58,11.29,14.23a32.62,32.62,0,0,1-2.33,16s-1.1.89-1.9-.84-3.32-.73-4-.36a5.42,5.42,0,0,1-5-.18c-2-1.26-4.53-2.92-5.83-5.1S71.44,35.84,68.85,37s-11.24,5.33-20.18,6.06S32.05,41.28,31,40.51s-2.14-1.07-3.11-.48-2.62,2.57-3.14,1.51A15,15,0,0,1,23.89,39.36Z" style="fill:#603404"/><path d="M45.34,44.68c-7.68,0-14-2-15.25-3-1-.69-1.32-.49-1.43-.42a8,8,0,0,0-.76.6c-1,.81-1.95,1.65-3.14,1.4a2,2,0,0,1-1.39-1.11,15.17,15.17,0,0,1-.92-2.4c-.27-.82-4.17-13.36.13-20.86C25.78,13.33,35.24.28,53.79,0h.8C70,0,76.32,6.79,77.34,8a11.43,11.43,0,0,0,3.91,1.54c4.38,1,11.36,6.63,12.45,15.49a33.76,33.76,0,0,1-2.46,16.8l-.14.32-.28.22a2.58,2.58,0,0,1-2.17.5A3,3,0,0,1,86.6,41l0-.06a3,3,0,0,0-1.93.42,6.89,6.89,0,0,1-6.49-.25,20.09,20.09,0,0,1-5.94-5,7.31,7.31,0,0,1-2.73,2.25l-.65.29c-3.13,1.42-11.47,5.2-20,5.9C47.62,44.64,46.46,44.68,45.34,44.68ZM29,38.22a5,5,0,0,1,2.92,1.09c.83.54,8.11,2.95,16.67,2.25,8-.66,16-4.27,19-5.63l.67-.3A5.19,5.19,0,0,0,70,34a3,3,0,0,1,2.43-1.5,2.7,2.7,0,0,1,2,1.46c1.19,2,3.88,3.69,5.33,4.59a3.91,3.91,0,0,0,3.49.11,6.06,6.06,0,0,1,4.28-.58A3.06,3.06,0,0,1,89,39.22a31.41,31.41,0,0,0,1.66-13.8c-1-8.33-7.79-12.41-10.13-12.95a12.69,12.69,0,0,1-5.31-2.26l-.12-.1L75.05,10c0-.06-5.7-7.23-21.21-7-16.38.24-25,11-28.63,17.4s.09,18.39.13,18.51V39s.11.39.3.9c.11-.08.2-.17.29-.24a9.34,9.34,0,0,1,1.14-.87A3.59,3.59,0,0,1,29,38.22Z" style="fill:#17202a"/><path d="M18.48,100.33h2.8a0,0,0,0,1,0,0v54.33a0,0,0,0,1,0,0H8.15A6.64,6.64,0,0,1,1.51,148V117.3a17,17,0,0,1,17-17Z" style="fill:#feb60d"/><path d="M22.79,156.18H7.13A7.13,7.13,0,0,1,0,149.05V116.86a18,18,0,0,1,18-18h4.75ZM18,101.85a15,15,0,0,0-15,15v32.19a4.1,4.1,0,0,0,4.11,4.1H19.76v-51.3Z" style="fill:#17202a"/><path d="M96.21,100.33H113.6a0,0,0,0,1,0,0v54.33a0,0,0,0,1,0,0h-6.35A17.23,17.23,0,0,1,90,137.44V106.52a6.19,6.19,0,0,1,6.19-6.19Z" transform="translate(203.62 255) rotate(180)" style="fill:#feb60d"/><path d="M108,156.18H88.51V98.82h8.56a18.06,18.06,0,0,1,18,18v32.19A7.14,7.14,0,0,1,108,156.18Zm-16.45-3H108a4.11,4.11,0,0,0,4.11-4.1V116.86a15,15,0,0,0-15-15H91.53Z" style="fill:#17202a"/><rect x="9.09" y="146.94" width="96.93" height="7.73" rx="3.86" style="fill:#dcdcdc"/><path d="M102.16,156.18H13a5.38,5.38,0,1,1,0-10.75h89.2a5.38,5.38,0,0,1,0,10.75ZM13,148.45a2.35,2.35,0,1,0,0,4.7h89.2a2.35,2.35,0,0,0,0-4.7Z" style="fill:#17202a"/><path d="M96.73,146.94H18.38a2.83,2.83,0,0,1-2.82-2.59L11.29,95.09A2.83,2.83,0,0,1,14.11,92H101a2.83,2.83,0,0,1,2.82,3.07l-4.27,49.26A2.83,2.83,0,0,1,96.73,146.94Z" style="fill:#eee"/><path d="M96.73,148.45H18.38a4.33,4.33,0,0,1-4.33-4L9.78,95.22a4.35,4.35,0,0,1,4.33-4.72H101a4.35,4.35,0,0,1,4.33,4.72l-4.27,49.26A4.32,4.32,0,0,1,96.73,148.45ZM14.11,93.53a1.29,1.29,0,0,0-1,.43,1.27,1.27,0,0,0-.34,1l4.26,49.26a1.32,1.32,0,0,0,1.32,1.21H96.73a1.32,1.32,0,0,0,1.32-1.21L102.31,95a1.27,1.27,0,0,0-.34-1,1.29,1.29,0,0,0-1-.43Z" style="fill:#17202a"/><path d="M48.9,109.86a13.2,13.2,0,0,0-3.62,5.67A13.17,13.17,0,0,0,48,120.15a3.47,3.47,0,0,1,1.47-1.94c1.49-.84,2.85.33,5.79.74a14.36,14.36,0,0,0,6.88-.79,12.78,12.78,0,0,0,4.33-2.77,12.39,12.39,0,0,0,2.22-2.92,13,13,0,0,0-19.82-2.61Zm13.68.38a.95.95,0,1,1,1,1,.94.94,0,0,1-1-1Z" style="fill:#2598dd"/><path d="M48,108.83a13.9,13.9,0,0,1,7-2.61,13.17,13.17,0,0,1,6.39.26c-.41-.31-6.15-4.57-13.07-2.13a14.42,14.42,0,0,0-8.57,8.94,2,2,0,0,0,3.78,1A13.84,13.84,0,0,1,48,108.83Z" style="fill:#2598dd"/><path d="M54,119.21l-2-.67a4.94,4.94,0,0,1-.9,3.72A4.94,4.94,0,0,0,54,119.21Z" style="fill:#2598dd"/><path d="M75,123.1a13.27,13.27,0,0,0-5.22-7.76,13,13,0,0,1-24.73.87,15.48,15.48,0,0,0,2.66,12.58c5.91,7.55,15.93,8.52,26.12,3.28A13.27,13.27,0,0,0,75,123.1Z" style="fill:#2598dd"/><path d="M27.63,41.14h1.65a0,0,0,0,1,0,0V68.08a0,0,0,0,1,0,0H27.63A13.47,13.47,0,0,1,14.15,54.61v0A13.47,13.47,0,0,1,27.63,41.14Z" transform="translate(-3.95 1.74) rotate(-4.21)" style="fill:#fe9900"/><path d="M27.6,69.16a15,15,0,0,1-1.09-29.93l1.65-.12a1.46,1.46,0,0,1,1.09.37,1.49,1.49,0,0,1,.53,1l2,26.87A1.51,1.51,0,0,1,30.36,69l-1.65.12C28.34,69.15,28,69.16,27.6,69.16Zm-.87-26.91a12,12,0,0,0,1.76,23.86h.14L26.87,42.24Zm-.11-1.51h0Z" style="fill:#17202a"/><path d="M99.31,41.14H101a0,0,0,0,1,0,0V68.08a0,0,0,0,1,0,0H99.31A13.47,13.47,0,0,1,85.83,54.61v0A13.47,13.47,0,0,1,99.31,41.14Z" transform="translate(182.53 115.93) rotate(-175.79)" style="fill:#fe9900"/><path d="M87.52,69.16c-.37,0-.74,0-1.12,0L84.75,69a1.51,1.51,0,0,1-1.39-1.62l2-26.87a1.44,1.44,0,0,1,.52-1A1.46,1.46,0,0,1,87,39.11l1.65.12a15,15,0,0,1,13.84,16.05A15,15,0,0,1,87.52,69.16Zm-1-3.06h.13a12,12,0,1,0,1.76-23.86h-.14Z" style="fill:#17202a"/><path d="M171.12,66.85a10.07,10.07,0,0,1-.17,1.89,9.79,9.79,0,0,1-9.74,8.08q-18,0-35.91,0a9.81,9.81,0,0,1-9.64-7.54,2.85,2.85,0,0,0-.26-1,0,0,0,0,0,0,0V31c.12,0,.1-.13.12-.21a9.85,9.85,0,0,1,10.18-8.35h35.15a12.54,12.54,0,0,1,1.84.11,9.83,9.83,0,0,1,8.44,9.87Q171.13,49.66,171.12,66.85Z" style="fill:#390000"/><path d="M147.06,60.87c-.73,0-1.45,0-2.18,0a.6.6,0,0,1-.67-.48c-.53-1.6-1.1-3.18-1.63-4.78a.63.63,0,0,0-.71-.53q-3.81,0-7.62,0a.58.58,0,0,0-.67.5c-.49,1.58-1,3.13-1.51,4.71a.7.7,0,0,1-.81.58c-1.26,0-2.51,0-3.76,0-.64,0-.69-.08-.47-.71q2.79-8.08,5.61-16.16.86-2.49,1.72-5a6,6,0,0,0,.4-2.12c0-.41.15-.53.54-.52,1.78,0,3.56,0,5.34,0a.68.68,0,0,1,.77.56c1.76,5,3.55,10,5.32,15l2.89,8.14c.25.72.24.75-.55.75Z" style="fill:#fe9900"/><path d="M157.41,51.61c0,2.87,0,5.73,0,8.6,0,.51-.14.7-.67.68-1.31,0-2.61,0-3.92,0-.48,0-.63-.17-.63-.63,0-5.79,0-11.57,0-17.36,0-.45.16-.59.61-.58q2,0,4,0c.45,0,.6.14.6.59C157.4,45.81,157.41,48.71,157.41,51.61Z" style="fill:#fe9900"/><path d="M157.73,37.43a2.89,2.89,0,1,1-5.77,0,2.83,2.83,0,0,1,2.95-2.87A2.7,2.7,0,0,1,157.73,37.43Z" style="fill:#fe9900"/><path d="M138.07,40.85c.83,2.68,1.64,5.33,2.45,8,.12.4.22.8.37,1.19s0,.37-.28.37c-1.71,0-3.41,0-5.11,0-.3,0-.39-.07-.3-.37L138,40.93Z" style="fill:#390000"/><path d="M24.79,93.53A1.51,1.51,0,0,1,23.28,92V67.35a1.51,1.51,0,0,1,3,0V92A1.52,1.52,0,0,1,24.79,93.53Z" style="fill:#17202a"/></svg>