<svg id="Capa_1" data-name="Capa 1" xmlns="http://www.w3.org/2000/svg" xmlns:xlink="http://www.w3.org/1999/xlink" viewBox="0 0 2870.39 2544.58"><defs><pattern id="Motivo_nuevo_2" data-name="Motivo nuevo 2" width="14" height="14.05" patternUnits="userSpaceOnUse" viewBox="0 0 14 14.05"><rect width="14" height="14.05" style="fill:none"/><polygon points="5.42 14.68 5.26 14.68 5.86 13.97 6.57 13.97 6.44 14.13 5.88 14.13 5.42 14.68" style="fill:#2598dd"/><path d="M18.19,14H17l-.13.16h1.16Zm-2.33,0H14.7l-.13.16h1.17Zm-2.32,0H12.38l-.13.16h1.16Zm-2.33,0H10.05l-.13.16h1.17ZM8.89,14H7.73l-.13.16H8.76Z" style="fill:#2598dd"/><path d="M4.19,14H3l-.13.16H4.06ZM1.86,14H.7l-.13.16H1.74ZM-.46,14H-1.62l-.13.16H-.59Zm-2.33,0H-3.95l-.13.16h1.17Zm-2.32,0H-6.27l-.13.16h1.16Z" style="fill:#2598dd"/><path d="M20.4,14H19.24l-.13.16h1.16Zm-2.33,0H16.91l-.13.16H18Zm-2.32,0H14.59l-.13.16h1.16Zm-2.33,0H12.26l-.12.16H13.3ZM11.1,14H9.94l-.13.16H11Z" style="fill:#2598dd"/><path d="M10.64,11.09h-.16l-1,1.17h.15Zm1.95-2.32h-.15l-1,1.16h.15Zm1.95-2.33h-.15l-1,1.17h.15Zm1.95-2.32h-.15l-1,1.16h.15Zm2-2.33h-.15L17.31,3h.15Z" style="fill:#2598dd"/><polygon points="8.14 14.13 7.43 14.13 7.56 13.97 8.12 13.97 8.58 13.42 8.74 13.42 8.14 14.13" style="fill:#2598dd"/><path d="M6.4,14H5.24l-.13.16H6.27ZM4.07,14H2.91l-.13.16H4ZM1.75,14H.59l-.13.16H1.62ZM-.58,14H-1.74l-.12.16H-.7ZM-2.9,14H-4.06l-.13.16H-3Z" style="fill:#2598dd"/><path d="M-3.36,11.09h-.16l-1,1.17h.15Zm2-2.32h-.15l-1,1.16h.15Zm2-2.33H.39l-1,1.17h.15Zm2-2.32H2.34l-1,1.16h.15Zm2-2.33H4.29L3.31,3h.15Z" style="fill:#2598dd"/><polygon points="5.42 0.63 5.26 0.63 5.86 -0.08 6.57 -0.08 6.44 0.08 5.88 0.08 5.42 0.63" style="fill:#2598dd"/><path d="M18.19-.08H17L16.9.08h1.16Zm-2.33,0H14.7l-.13.16h1.17Zm-2.32,0H12.38l-.13.16h1.16Zm-2.33,0H10.05L9.92.08h1.17Zm-2.32,0H7.73L7.6.08H8.76Z" style="fill:#2598dd"/><path d="M10.69,11.09h-.15l-1,1.17h.15Zm2-2.32h-.15l-1,1.16h.15Zm1.95-2.33h-.15l-1,1.17h.15Zm1.95-2.32h-.15l-1,1.16h.15Zm1.95-2.33h-.15L17.36,3h.15Z" style="fill:#2598dd"/><path d="M4.19-.08H3L2.9.08H4.06Zm-2.33,0H.7L.57.08H1.74Zm-2.32,0H-1.62l-.13.16H-.59Zm-2.33,0H-3.95l-.13.16h1.17Zm-2.32,0H-6.27L-6.4.08h1.16Z" style="fill:#2598dd"/><path d="M-3.31,11.09h-.15l-1,1.17h.15Zm2-2.32h-.15l-1,1.16h.15Zm2-2.33H.44l-1,1.17h.15Zm2-2.32H2.39l-1,1.16h.15Zm2-2.33H4.34L3.36,3h.15Z" style="fill:#2598dd"/><path d="M20.4-.08H19.24l-.13.16h1.16Zm-2.33,0H16.91l-.13.16H18Zm-2.32,0H14.59l-.13.16h1.16Zm-2.33,0H12.26l-.12.16H13.3Zm-2.32,0H9.94L9.81.08H11Z" style="fill:#2598dd"/><polygon points="8.14 0.08 7.43 0.08 7.56 -0.08 8.12 -0.08 8.58 -0.63 8.74 -0.63 8.14 0.08" style="fill:#2598dd"/><path d="M6.4-.08H5.24L5.11.08H6.27Zm-2.33,0H2.91L2.78.08H4Zm-2.32,0H.59L.46.08H1.62Zm-2.33,0H-1.74l-.12.16H-.7Zm-2.32,0H-4.06l-.13.16H-3Z" style="fill:#2598dd"/></pattern></defs><g id="Capa_2" data-name="Capa 2" style="opacity:0.5"><g id="Capa_1-2" data-name="Capa 1-2"><path d="M-364.34-1296.91c-68.64,62.74-97.89,134.79-110,172.1a398.72,398.72,0,0,0,83.6,140.21c7-19.79,19.79-44.9,44.56-58.92,45.18-25.53,86.6,10.16,175.62,22.44,23.22,3.2,112.07,13.44,208.78-23.86a392.35,392.35,0,0,0,131.55-83.92,379.44,379.44,0,0,0,67.22-88.8c-12.09-18.82-105.91-159.75-289.08-180.72C-70.73-1400.56-233.62-1416.43-364.34-1296.91Zm443.82-16.94a28.71,28.71,0,0,1,28.73,28.69,28.71,28.71,0,0,1-28.69,28.72,28.71,28.71,0,0,1-28.73-28.69v0a28.69,28.69,0,0,1,28.69-28.69Z" transform="translate(641.71 1486.86)" style="fill:url(#Motivo_nuevo_2)"/><path d="M-391.2-1328.1a421.48,421.48,0,0,1,212.81-79.07,399,399,0,0,1,193.9,7.81C3.2-1408.9-171.08-1538.17-381-1464c-192.9,68.14-253.76,250.82-260.18,271.23-3.56,28.61,12.5,55.65,37.65,65.27,28.65,11,63.16-3,77-33.25A421,421,0,0,1-391.2-1328.1Z" transform="translate(641.71 1486.86)" style="fill:url(#Motivo_nuevo_2)"/><path d="M-295.65-920.46a151.08,151.08,0,0,0,87.26-92.72l-60-20.35A150.61,150.61,0,0,1-295.65-920.46Z" transform="translate(641.71 1486.86)" style="fill:url(#Motivo_nuevo_2)"/><path d="M428.46-894.94c-32.66-142.8-133.54-218.16-158.13-235.5C221.67-976.69,89-866-65.94-849.15c-174.63,19-345.82-84.81-414.31-255C-498.38-1044-509.37-862.5-399.6-722.37-220.18-493.3,83.79-463.69,393.17-622.95,407.7-650.75,459.71-758.32,428.46-894.94Z" transform="translate(641.71 1486.86)" style="fill:url(#Motivo_nuevo_2)"/></g></g><polygon points="774.43 749.35 580.93 749.35 601.67 662.67 753.7 662.67 774.43 749.35" style="fill:#d1d2d4"/><path d="M132.72-732.06H-60.79a5.53,5.53,0,0,1-5.44-5.6,6,6,0,0,1,.15-1.19l20.74-86.61A5.43,5.43,0,0,1-40-829.63H112a5.45,5.45,0,0,1,5.3,4.17l20.66,86.61a5.58,5.58,0,0,1-1,4.7A5.53,5.53,0,0,1,132.72-732.06ZM-53.77-743H125.78l-18.12-75.71H-35.72Z" transform="translate(641.71 1486.86)"/><path d="M370.83-1260.36V-903H-298.9v-357.32a19,19,0,0,1,19.1-18.8h632A18.87,18.87,0,0,1,370.83-1260.36Z" transform="translate(641.71 1486.86)" style="fill:#21201e"/><path d="M370.83-897.59H-298.9a5.45,5.45,0,0,1-5.45-5.45v-357.32a24.41,24.41,0,0,1,24.47-24.32H352.19a24.39,24.39,0,0,1,24.46,24.32h0V-903a5.38,5.38,0,0,1-5.27,5.47Zm-663.91-10.89H365.76v-351.88a13.43,13.43,0,0,0-13.43-13.43H-279.8a13.51,13.51,0,0,0-13.43,13.43Z" transform="translate(641.71 1486.86)"/><path d="M182.7-747.87a17.3,17.3,0,0,1-17.23,17.23H-93.31a17.32,17.32,0,0,1-17.46-17.16,17.32,17.32,0,0,1,2.54-9.18h288A17.36,17.36,0,0,1,182.7-747.87Z" transform="translate(641.71 1486.86)" style="fill:#e6e6e6"/><path d="M165.17-725.2H-93.31a22.34,22.34,0,0,1-16.11-6.64,22.75,22.75,0,0,1-6.27-16,22.48,22.48,0,0,1,3.28-11.79,5.36,5.36,0,0,1,4.63-2.61H180.16a5.35,5.35,0,0,1,4.63,2.61,22.37,22.37,0,0,1-6.74,30.92,22.34,22.34,0,0,1-12.66,3.54ZM-104.5-751.38a11,11,0,0,0-.52,3.51,11.64,11.64,0,0,0,3.5,8.28,11.51,11.51,0,0,0,8.21,3.5H165a11.79,11.79,0,0,0,11.79-11.78h0a11,11,0,0,0-.53-3.51Z" transform="translate(641.71 1486.86)"/><path d="M370.83-903v69.53A18.87,18.87,0,0,1,352-814.64H-279.8a19,19,0,0,1-18.88-18.87V-903Z" transform="translate(641.71 1486.86)" style="fill:#e6e6e6"/><path d="M352-809.19H-279.8a24.32,24.32,0,0,1-24.32-24.32V-903a5.45,5.45,0,0,1,5.44-5.44H371.06A5.44,5.44,0,0,1,376.5-903v69.53a24.31,24.31,0,0,1-24.31,24.32Zm-645.41-88.4v64.08A13.43,13.43,0,0,0-280-820.08H352a13.36,13.36,0,0,0,13.43-13.28v-64.23Z" transform="translate(641.71 1486.86)"/><circle cx="677.68" cy="628.06" r="20.44" style="fill:#656364;isolation:isolate;opacity:0.150000005960464"/><rect x="362.73" y="230.68" width="629.9" height="327.71" style="fill:#008add"/><polygon points="992.63 558.38 362.73 558.38 362.73 230.68 992.63 558.38" style="fill:#2598dd"/><path d="M-45.42-1113.55v351.28H-563.27v-351.28a17,17,0,0,1,14.92-18.58H-60A17,17,0,0,1-45.42-1113.55Z" transform="translate(641.71 1486.86)" style="fill:#21201e"/><path d="M-45.42-758.24H-563.27a4.1,4.1,0,0,1-4-4v-351.28a20.89,20.89,0,0,1,18.65-22.38H-60a20.89,20.89,0,0,1,18.57,22.38v351.28a4,4,0,0,1-4,4Zm-513.9-8.06H-49.45v-347.25c0-7.83-4.77-14.55-10.52-14.55H-548.35c-5.75,0-10.6,6.72-10.6,14.55Z" transform="translate(641.71 1486.86)"/><path d="M-3.79-762.27a41.47,41.47,0,0,1-40.51,33H-564.09a41.33,41.33,0,0,1-40.44-33Z" transform="translate(641.71 1486.86)" style="fill:#e6e6e6"/><path d="M-44.67-725.2H-564.09a45.44,45.44,0,0,1-44.39-36.33,4.06,4.06,0,0,1,.82-2.91,4,4,0,0,1,3.13-1.49H-3.79a3.83,3.83,0,0,1,3.06,1.49,3.62,3.62,0,0,1,.82,3.29A45.35,45.35,0,0,1-44.67-725.2Zm-554.56-33a37.31,37.31,0,0,0,35.14,25H-44.67a37.31,37.31,0,0,0,35.21-25Z" transform="translate(641.71 1486.86)"/><path d="M-247.35-759.66v1.27a12.09,12.09,0,0,1-12,12h-90a12.09,12.09,0,0,1-12-12v-1.27a10.36,10.36,0,0,1,0-2.61h113.39A14.53,14.53,0,0,1-247.35-759.66Z" transform="translate(641.71 1486.86)" style="fill:#656364;isolation:isolate;opacity:0.25"/><path d="M366.66-727.66h-74c-32.08,0-36-16.19-36-36V-941.08c0-19.77,6.34-36.48,36-36h74c32.07,0,35.95,16.19,35.95,36v177.47C402.61-743.85,399.41-727.66,366.66-727.66Z" transform="translate(641.71 1486.86)" style="fill:#21201e"/><path d="M377.7-725.2H281.62a27.37,27.37,0,0,1-27.38-27.37V-952.12a27.38,27.38,0,0,1,27.38-27.38H377.7a27.37,27.37,0,0,1,27.37,27.38v199.55A27.36,27.36,0,0,1,377.7-725.2ZM281.62-974.58a22.38,22.38,0,0,0-22.38,22.38v199.63a22.37,22.37,0,0,0,22.38,22.37H377.7a22.37,22.37,0,0,0,22.38-22.37V-952.12A22.38,22.38,0,0,0,377.7-974.5Z" transform="translate(641.71 1486.86)"/><line x1="1034.78" y1="749.95" x2="1033.14" y2="747.04" style="fill:none"/><line x1="909.6" y1="521.98" x2="907.96" y2="519.07" style="fill:none"/><path d="M393.06-960.55v216.33a7,7,0,0,1-1.56,4.33,8.3,8.3,0,0,1-6.34,2.91H274.23a7.46,7.46,0,0,1-8-6.92,4.87,4.87,0,0,1,0-.54V-960.78a6.49,6.49,0,0,1,1.64-4.32,8.08,8.08,0,0,1,6.34-2.91h27.83a5.66,5.66,0,0,0,5.88,5.45h43.87a6.09,6.09,0,0,0,4.18-1.56,5.16,5.16,0,0,0,1.79-3.88h27.6a7.45,7.45,0,0,1,7.68,7.23Z" transform="translate(641.71 1486.86)" style="fill:#008add"/><path d="M391.57-739.82a8.27,8.27,0,0,1-6.34,2.91h-111a7.46,7.46,0,0,1-8-6.92,4.87,4.87,0,0,1,0-.54V-960.7a6.5,6.5,0,0,1,1.64-4.33Z" transform="translate(641.71 1486.86)" style="fill:#2598dd"/><rect x="104.92" y="381.66" width="464.82" height="314.05" style="fill:#008add"/><polygon points="569.74 695.72 104.92 695.72 104.92 381.66 569.74 695.72" style="fill:#2598dd"/><path d="M1181.67,378.4c0,3.4-2.17,5.59-5.67,5.62-3,0-5.16-1.75-5.15-4.18,0-2.61,3.58-6.56,6-6.67C1179.48,373.06,1181.64,375.4,1181.67,378.4Z" transform="translate(641.71 1486.86)" style="fill:url(#Motivo_nuevo_2)"/><path d="M1219.81,376.9c0,4.85-4.2,9.33-8.54,9.1-4.67-.24-7.92-4.67-7.3-9.92,0-.36.13-.7.2-1.05,1-5.17,4.59-8.63,8.32-8.14S1219.81,372.46,1219.81,376.9Z" transform="translate(641.71 1486.86)" style="fill:url(#Motivo_nuevo_2)"/><path d="M2218.23,206.36c.85-1.31,2-1.33,2.95-1.8,5.5-2.74,7.34-6.67,5.9-12.64a51.69,51.69,0,0,0-1.64-5.62,6.92,6.92,0,0,1,.48-6.58c2.19-3.48,1.34-6.81-1.1-9.83-2.69-3.3-6.07-5.52-10.38-5.84a97.6,97.6,0,0,0-10.12-.18c-7.81.23-15.72,1.26-22.65-3.77a4.42,4.42,0,0,0-1-.32c-5.92-2-7.73-1.26-11,4-1.33,2.15-1.92,4.84-4.35,6.73-3.46-6.68-9.54-7.83-15.89-8.4a113.38,113.38,0,0,0-30.77,1.7,11.46,11.46,0,0,1-10.62-2.89c-6.7-5.8-14.35-9.53-23.79-8.59-4.76.48-9.65.49-14.3,1.44-8.52,1.75-15.61-.47-22.23-5.76-6.79-5.43-14.38-8.3-23.26-6-7.24,1.85-13-1.09-18.3-6,4.19-1.33,8.24-2.49,12.18-3.92,2.83-1,3.27-2.46,1.65-4.88-2.55-3.79-5.66-6.78-10.62-7.17a76.9,76.9,0,0,1-12.55-2.37c-1.9-.47-4.17-1.24-5.73-.19-3,2-5.62,1.16-8.45.11-6.53-2.44-11.39.6-15.61,5.06-2.63,2.77-1.92,6,1.49,8a14,14,0,0,0,5.57,1.71c3,.29,6,.64,9,.87,2.23.17,3.24,1.2,2.83,3.46-.53,3-1.19,5.91-3,8.43-1.43,1.95-2.83,3.5-5.7,2.81a9.83,9.83,0,0,0-7.2,1.23,12.26,12.26,0,0,1-5.64,1.37c-3.9.17-7.81.3-11.69.62-1.45.12-2.24-.61-3.26-1.37-3.77-2.79-5.19-2.68-8.84.43-1.76,1.5-3.38,3.17-5.24,4.53-2.72,2-4.13,1.7-6.4-.78a7.53,7.53,0,0,1-2-4.78,56.32,56.32,0,0,0-.82-6.86c-1.25-6.69-3-8.17-9.89-8.86-7.87-.77-15.6.17-23.3,1.73a23.53,23.53,0,0,0-9.71,4c-3.92,2.88-8.25,3.85-12.82.65-3.08-2.15-6.77-2.95-10.53-3.49a129.08,129.08,0,0,0-17-1.08c-3.28,0-6.57,0-10.57,0,1.38-1.89,2.36-3.09,3.18-4.4a23.56,23.56,0,0,0,2.28-4.18c1.51-4,.48-7-3.12-9.08a14,14,0,0,0-4.4-1.86c-9.6-1.79-19.24-3.32-29.06-3a15.38,15.38,0,0,0-6.21,1.32,4.82,4.82,0,0,1-4.88-.36c-5.13-2.82-10.34-5.49-16.21-6.57-3.51-.65-7-.43-9.66,1.79-3.52,2.91-7.85,4.08-11.59,6.36-7.09,4.31-14.25,4-21.31.69-4.15-2-7.85-1.55-11.73.12a55.34,55.34,0,0,0-7.24,3.34c-4.08,2.55-8.12,4-13.08,2.6a19.13,19.13,0,0,0-7.94,0,52.78,52.78,0,0,0-21.59,8.54c-5.86,4.06-11.93,6.79-19.32,6a52,52,0,0,0-12.78,0c-3.89.54-4.65,1.65-4.72,6.11a41.23,41.23,0,0,0,7.74,6.57c-5-.16-7.08-2.55-8.92-5.36a30.28,30.28,0,0,0-3.42-2.51c-6.57-3.62-13.08-.69-14.75,6.59-.36,1.55-.53,3.15-.82,4.72-.33,1.83-1.59,2.12-3.33,1.84-.43-3.28-.81-6.62-1.33-9.93-.28-1.83-1.08-3.45-3.12-3.87s-3.3.83-4.38,2.36c-1.42,2-2.43,4.31-4.47,5.91-1.87-3.75-1.87-3.74-5.06-5.93-1.61-1.11-3.22-2.22-4.8-3.37-9.51-7-10.72-6.7-18.4,1.9-3.45,3.88-6.63,8-12,10.08-4.92,1.88-5.77,8.23-2.44,12.7,1.42,1.92,3.46,3,5.41,4.25,1.66,1.06,3.7,1.77,4.56,3.93a3.08,3.08,0,0,1-2.84-.05c-7.52-4.3-16.13-5.2-24.24-7.59-8.62-2.55-17.15-3.12-23.49,5.61-2.5,3.44-3.1,3.26-6.52.8-2.37-1.7-4.82-2.48-7.47-1.35a15.82,15.82,0,0,1-8.86.87c-3.1-.47-6.09-.18-8.28,2.45-1,1.25-2.15.9-3.36.49-2.17-.76-4.34-1.53-6.53-2.25a8.24,8.24,0,0,0-8.09,1.28c-5,4-10.66,4.5-16.63,3.6a10.94,10.94,0,0,0-9,2.11c1-7.32-1.18-9.79-8.56-9.79a28.74,28.74,0,0,0-5.28.64c-5.55,1-7.13,3.14-7.06,8.74,0,2.31,1.31,4.44.7,7.23-2.1-1.74-4.07.09-6.1,0-1.15-4.29-1.15-4.29-4.44-6.13a49.15,49.15,0,0,0-19.6-6.4,82.93,82.93,0,0,1-32-9.16,55.87,55.87,0,0,0-17.65-5.72c-4-.64-8-1.48-12.11-1.91-8.28-.88-16.62-2.44-24.94-.75-16.38,3.34-32.26,8.43-48,14.15a9.38,9.38,0,0,0-5.33,4.14c-6.21,10.86-15.74,18.69-24.79,26.94a35.48,35.48,0,0,1-13.73,7.87c-6.53,2-12,6-17,10.64-3.08,2.81-4.1,5.84-2.68,10,1,2.95,2.09,5.91,2,9.26-.13,9.35,6.37,16.07,15.71,16.75,1,.07,2,0,3.42,0-5.53,7-7.27,14.09-3.55,22-13.41.33-12.65,2-20.24,9.43a9.66,9.66,0,0,0-1.45,1.55c-2,2.95-5,3.68-8.24,4.21-1.86.3-2.82.14-3.48-2a22.45,22.45,0,0,0-9.24-12,25.44,25.44,0,0,1-6.64-6.81c-1.62-2.34-3-4.91-4.87-7s-2-3.77-1.37-6.21c1.35-5.6.09-8.85-4.57-11.83a81,81,0,0,0-8.85-4.88c-2.82-1.36-5.58-.7-8,1.18a15.28,15.28,0,0,0-2.93,3.08,3.09,3.09,0,0,1-3.59,1.33c-6.94-1.2-10.26,2.54-8.88,9.5.56,2.76,2.42,4.93,3.38,7.88-4.81-.22-8.47,1.19-10.76,5.16-.93,1.6-2.54,1.7-4.08,2.14-4.57,1.3-6.15,3.57-5.23,8.27.61,3.13,1.51,5.91-.91,8.86-1.18,1.44-.53,3.78.27,5.64,2.29,5.37,7.23,7.7,12.66,5.4,6-2.56,11.85-5.66,17.08-11.65-2.18,5.81.54,8.64,4.29,10.85a3.76,3.76,0,0,1,2,3.34c.57,5.21,3.84,6.42,8,3.14,1.25-1,2.25-2.37,4.07-2.17,4.07.45,8.08,1.19,11.81,3.42-9.07.22-16.1,6.66-24.85,7.6a3.89,3.89,0,0,0-1.47.59c-3.4,2-3.56,5.53-.28,7.68a12.4,12.4,0,0,0,4.49,1.58,31.92,31.92,0,0,1,8.48,3.07c5.93,3.14,7.13,5.47,6.15,12-.08.53-.2,1-.3,1.57-1.48,8.23-1.79,8.36-9.89,8-8.69-.41-17.35-1.62-26.07-1.42-7.34.17-10.59,3.2-11.33,10.58a36.15,36.15,0,0,0,.89,12.69c.84,3.25.61,6.07-1.81,8.89-3.33,3.9-3.07,8.43,0,12.71,1.23,1.74,2.58,3.41,3.64,5.25,1.9,3.36,4.58,4.61,8.42,4.09a8.8,8.8,0,0,1,9.83,7.22,1.65,1.65,0,0,1-.75,1.77c-3.44,2.8-6.56,6.17-10.37,8.33-5,2.84-7.77,7.07-10.06,12a29.62,29.62,0,0,0-3,13.93c.24,5-1.18,8.59-6.09,10.57-1.94.79-3.58,2.29-5.38,3.42a39.71,39.71,0,0,0-17,20.52,117.34,117.34,0,0,1-9.12,19.8c-2.22,3.69-2.34,7.78-1.38,11.87.52,2.24,1.47,4.37,2.05,6.6,1.52,5.81,4.17,11.68,2,17.69a71.14,71.14,0,0,1-9.08,17.25c-1.58,2.18-1.77,3.81-.24,5.63,2.85,3.43,3.45,7.23,2.63,11.49-1.2,6.22,1.37,10.68,6.76,13.72,1.39.79,2.72,1.69,4.07,2.54,5.24,3.34,9.27,7.66,11.4,13.62,1.45,4.08,4.07,7.5,6.87,10.72,7.1,8.19,14.75,15.88,22.5,23.46,4.75,4.65,8.54,3.81,10.86-2.34a5.21,5.21,0,0,1,4.53-3.73,34.7,34.7,0,0,1,12.19-.26c10.66,1.84,20.44-.09,29.41-6.26a57.1,57.1,0,0,1,8.38-4.65c6-2.76,10.22-1.19,13,4.83,1,2.25,1.67,4.69,2.69,7,2.7,5.93,7.57,7.76,13.59,5.11a24,24,0,0,0,4.13-2.39c3.59-2.5,3.57-2.54,7,.05.57.42,1.17.81,1.7,1.28,3,2.6,3.23,3.62.78,6.66-2.08,2.58-3.67,5.38-3.8,8.62a72.21,72.21,0,0,1-3.37,19.86c-1.29,3.84-.35,7.55,3.33,9.8,3.84,2.35,6.1,5.92,8.21,9.61,3.62,6.31,6.92,12.81,10.57,19.1a12.86,12.86,0,0,1,2,8.11,37.85,37.85,0,0,0,4.8,24.09c2.22,3.79,1.91,4.1-1.41,7.25-5.47,5.18-9.42,11.29-10.24,18.8-1.1,10.18-.31,20.25,3.94,29.76,2.46,5.51,4.85,11.07,7.72,16.37,5.55,10.26,8.39,21.05,7.56,32.74-.2,2.86-.18,5.85,1.15,8.36,2.57,4.86,4.56,10.1,8.23,14.27,3.41,3.88,5.11,8.39,6.44,13.25a115,115,0,0,1,3,17.83c.89,8.23,6.73,11.57,12.67,13.38a7.09,7.09,0,0,0,7.07-1.26c2.25-2,4.93-2.56,7.78-3a59.3,59.3,0,0,1,12.76-.55,26.25,26.25,0,0,0,14.73-3.85A53.45,53.45,0,0,0,1335,889.22c6-7.27,11.06-15.25,17.45-22.21,5.1-5.55,9.11-11.43,6.07-19.6-.86-2.29.37-3.93,2.58-5.11,3-1.59,5.75-3.52,8.62-5.29,4.11-2.53,5.61-6.1,4.78-10.88a146.75,146.75,0,0,0-3.8-16c-.51-1.76-.84-3.43,0-5.16,3-6.12,6.32-12,12.84-15.12,2.55-1.25,5-2.69,7.51-4a11.42,11.42,0,0,0,4.74-4.16c5.65-9.48,9.79-19.3,7.84-30.76-.55-3.29-1.28-6.83-.06-10,2.11-5.55.7-10.12-3.07-14.19a15.77,15.77,0,0,1-3.89-8.56c-.84-5.07-1.13-10.2-2.22-15.27-.86-3.91-.92-8.51,2.14-11.63,3.92-4,6.71-8.71,9.73-13.29q6.91-10.46,14.72-20.25a29.59,29.59,0,0,1,11.37-9.29,23.1,23.1,0,0,0,12.84-13.65,86.23,86.23,0,0,1,10.27-20.35c6.14-9.27,8.82-19.7,10.91-30.33,1.8-9.2-1.26-11.88-10.44-9.56a100.11,100.11,0,0,0-21.21,8.46c-3.81,2-7.7,3.7-12.15,3.5-3.09-.15-3.82-.74-3.66-3.84a31.14,31.14,0,0,0-.47-9.27,43.08,43.08,0,0,0,22.93-5.55c3.84-2.22,7.75-4.34,11.59-6.56,7.94-4.61,17.69-5.34,24.87-11.6a3.67,3.67,0,0,1,1.49-.53c5.89-1.45,10.46-5,14.88-9a70.81,70.81,0,0,0,16.15-21.64,67.7,67.7,0,0,1,5.94-10.07c3.37-4.6,3.07-8.2-.68-12.51a38,38,0,0,0-12.67-9.57c-3.2-1.49-5.61-3-6.74-6.68-1-3.33-2.11-3.49-5.94-2.59a2.93,2.93,0,0,1,.9-1.72c4.63-3.94,5-3.9,8.42,1,1,1.46,2.08,2.88,3.1,4.33a14.35,14.35,0,0,0,10.14,6.21,134.32,134.32,0,0,0,26.58,1.31c3-.19,6-.74,8.38-2.94,4.22-3.88,4.24-3.86,7.63,1.06l2.12,3.08a11.59,11.59,0,0,0,7.25,5c5.17,1.23,5.14,1.35,5.43,6.68.25,4.48.92,8.86,3.67,12.59,3,4,5.91,4.55,10.15,2.14,1.2-.67,2-2.08,3.53-2.19,1,1.29.59,2.76.46,4.06-1.25,13.85,2.64,26.72,7.56,39.36,3.92,10.09,8.14,20.06,13.82,29.33,2.62,4.28,4.4,8.83,4.23,14.07a20.2,20.2,0,0,0,1.52,7.79c.86,2.27,2.1,4.31,4.72,4.53,2.34.2,4-1.33,5.16-3.21s2.17-4.07,3.3-6.07c.88-1.56,1.19-3.5,3.23-4.83-.3,2-.59,3.59-.77,5.17a26.43,26.43,0,0,0,1,11.59c1,2.83,2.59,5.1,5.89,5.44a7.13,7.13,0,0,0,7.16-3.69c2.68-4.42,4.08-9,1.67-14.13a47.4,47.4,0,0,1-1.93-5.52,14.39,14.39,0,0,0-3.21-6c-1.91-1.89-4.31-.58-6.38-1,1.33-5.76,2.71-11.27,3.85-16.82a63.57,63.57,0,0,0,1.29-17.5c-.4-5.2,2-8.42,6.13-10.82,2.77-1.59,5.71-3,7.84-5.45,5.7-6.56,12.2-12.66,16.67-20s9.53-10.31,17.75-9.44c4.59.49,8.86-.73,11.49-5.14a1.45,1.45,0,0,1,2-.63c1.61,6,5.1,11.13,9.06,15.91a28.87,28.87,0,0,1,6.8,21.22,29.93,29.93,0,0,0,.91,11.09c.7,2.26,1.44,4.51,4.19,4.94,2.45.38,4.05-1.15,5.32-2.91,1.45-2,2.7-4.17,4-6.28,1.42-2.31,3.15-4.06,6.49-4.19-.41,6.17.36,12,.5,17.8.22,8.43.94,16.66,6.21,23.62-6.67,5.5-7.56,15.24-1.59,19.47a15.1,15.1,0,0,1,6.15,9.5c1.43,5.88,3.8,11.45,5.62,17.19,3.27,10.24,10.65,17,18.67,23.32a5.56,5.56,0,0,0,7.34.17,6.26,6.26,0,0,0,2.39-7.08,23.4,23.4,0,0,0-2.51-4.67,33.58,33.58,0,0,1-4.68-11.21,53.65,53.65,0,0,0-9.18-20.23c-3.62-5-7.2-10.14-11.09-15-2.67-3.31-4-6-2.37-10.38,2-5.2,2.94-10.78,4.4-16.38a26.83,26.83,0,0,1,9.7,9.54,175.65,175.65,0,0,0,12,18.2c2.61,3.55,4.59,4.35,8.4,2.44,2.59-1.3,5.13-3,6.16-5.67,1.6-4.21,4.59-5.91,8.74-6.68s7.51-3.25,8.77-7.62a109.25,109.25,0,0,0,3.25-12.34c.74-4.39.3-8.68-2-12.36-4.75-7.48-9-15.36-15.17-21.83-2.89-3-4.43-6.8-6-10.57a2.36,2.36,0,0,1,.37-2.89q5.24-5.68,10.45-11.39a1.63,1.63,0,0,1,1.87-.62,2.27,2.27,0,0,1,1.29,2.18c0,1.84-1,3.36-1.82,4.93a30.37,30.37,0,0,0-3.72,12.67c-.13,3.9.75,7.44,4,10,3.39,2.71,6.72,2.4,9.24-1,1.7-2.26,3.22-4.68,4.7-7.1,2.22-3.62,4-7-.28-10.79-2.08-1.84-1.64-4.94-.14-7.44a5,5,0,0,1,5.79-2.6c3.55.71,7.08-.25,10.51-1.15,9.78-2.55,19.12-6,25-14.94a104.44,104.44,0,0,1,16.85-19.13c1.31-1.2,2.49-2.53,3.71-3.83,5.39-5.77,8.26-11.95,7.8-20.52-.62-11.47-3.5-21.59-10.3-30.73-1.31-1.76-2.9-3.42-3.62-5.8,2.56-1.19,4.83-2.16,7-3.28a15.81,15.81,0,0,0,6.75-5.87,7.82,7.82,0,0,0-.18-9c-2-2.81-4.72-3.55-8-2.74-2.07.51-4.18.84-6.25,1.36a4,4,0,0,1-4.27-1.39c-1.31-1.44-2.81-2.73-4.11-4.18-2-2.27-1.75-3.77,1.15-4.55s5.08-2.41,7.37-4.1c1.7-1.26,2.87-3.18,5.13-4-.14,1.49-.38,2.86-.39,4.24-.05,5.79,3.45,8.15,8.71,5.75a51.89,51.89,0,0,0,5.42-3.37c1.49-.92,2.59-2.47,4.63-2.83a8.69,8.69,0,0,1,.7,7.57c-.92,2.89-1.59,5.85-.67,8.89s3,3.78,5.79,2.58c1.57-.69,2.34-2.74,4.42-2.58,3.79,4.41,1.39,8.22-.94,12.14-2.58,4.34-2.52,7-.12,9.78a10.14,10.14,0,0,0,11.34,3.19,16.11,16.11,0,0,0,2.77-2.46c4.24-4.52,6.09-10.21,8.61-15.69,1.76-3.81,1.31-5.95-1-8.79a49.74,49.74,0,0,1-7-12.51c-.83-1.93-.94-3.95,1.14-4.41,4.63-1,7.07-3.54,7.74-8.18.19-1.24,1.81-1.58,2.87-2.21,2.58-2.7,6.26-4.1,8.57-7.07,1.9-2.44,3.56-3,6.65-1.43,6.24,3.06,9.92,1.92,14.49-3.25a201.55,201.55,0,0,1,19.18-19.26,49.52,49.52,0,0,0,16-26.4,10.65,10.65,0,0,1,2.17-5.15c-.12,8-.18,15.27.25,22.54.27,4.55,2.61,7.66,6.28,9.9,4.51,2.76,8.09.74,8.31-4.56a28.23,28.23,0,0,0-1.29-8.93c-1-3.5-.16-5.91,2.82-7.66,2.52-1.49,3.06-3.74,2.84-6.38a28.75,28.75,0,0,0-4.84-14.47c-1.34-1.89-2.22-3.29-.46-5.53,2.71-3.45.58-6.73-1-9.88s-4.45-2.23-7.06-2a18.62,18.62,0,0,0-3.69.42c-1.71.52-2.92.42-4.19-1.09-3.08-3.62-7-3.69-11.17-2.14-2.25.84-4.31,2.33-7.1,2.42-.48-3.27.78-7-4.67-9.22,11.75-2.65,17.82-10.59,24.73-17.44,1-1,2.08-1.95,3.06-3A9.91,9.91,0,0,1,2011,244c4.07.36,8.17.28,12.25.51,8.57.5,17.09.55,25.12-3.1,1.9-.87,3.34-.37,4.89.77a29.3,29.3,0,0,0,9,4.46c5.64,1.7,10.81,1.52,15.17-3.19a54,54,0,0,1,9.06-7.43c4.23-2.94,8.38-5.93,11.76-9.95a10.35,10.35,0,0,1,7.84-3.84c.66,4.68-1.24,10.28,5.6,11.84-2.89,3.66-6.85,5-10.61,6.34-8.38,3.07-14.56,8.48-19.3,16-3.8,6-4.79,12.12-2.53,18.78,1.26,3.69,2.71,7.32,4,11a9.55,9.55,0,0,1-.42,8.23c-.42.77-.76,1.6-1.12,2.41a66,66,0,0,0-4.1,14.3c-.27,1.51,0,2.91,1.56,3.57s2.73-.05,3.61-1.37c.6-.89,1.19-1.77,1.8-2.65A57,57,0,0,1,2096,298a61.12,61.12,0,0,0,13-14c3-4.59,6.55-8.3,12-9.91,2.08-.61,4.21-1.86,4.64-4.06,1.18-5.93,3.36-11.56,5-17.36.49-1.81.45-4-2.19-4.66a1.21,1.21,0,0,1-1.09-1.45,11.11,11.11,0,0,1,9.81-9.71,73.43,73.43,0,0,1,14.37-.08c12.9,1.67,24.21-1.48,35.58-7.89,9.7-5.47,20.55-9.67,32.49-6.91,2.44.57,5,.18,6.47-2.48s-.12-4.81-1.71-6.71C2222.33,210.49,2220.21,208.43,2218.23,206.36ZM1127.45,287.77a38.45,38.45,0,0,0,.14-13c3.59.47,6.28,2.1,9.14,3Zm266.74-93.38c-.14,2.3-.21,3.88-.33,5.44-.25,3.22-2,4.36-4.94,3a43,43,0,0,1-4.06-2.5c-4.09-2.47-4.71-2.43-8.44.42-1.25,1-2.41,2.09-4.55,2-.92-2.38-.22-5-1-8A40.48,40.48,0,0,0,1394.19,194.39Zm-52.78,141.4c2.55-4.42,5.18-4.33,7.84-.08,1.89,3,3.41,6.2,5.09,9.33,2.23,4.15,4.48,4.91,8.65,2.59,4-2.24,7.63-5,10.12-9.61a14.63,14.63,0,0,0,8,6.29,25.05,25.05,0,0,1,6.73,4.21c3.87,3.11,7.57,6.43,11.76,9.13a10,10,0,0,1,4.23,5.93c.46,1.62,0,2.81-1.83,3.13a75.39,75.39,0,0,1-17.48,1.23c-2.78-.18-4.93-1.92-7.19-3.27a30.59,30.59,0,0,0-19.37-4.3c-3.43.36-6.8,1.16-9,4-1.8,2.28-4,2.59-6.57,2.59-4.54,0-9.23-1.12-13.67,1.63-.47-3.5.57-7-2-9.89-.86-.94.52-2.77,1.47-3.71C1333.86,349.41,1337.49,342.54,1341.41,335.79Zm-50.27-138.26c4.78-.37,9.37-1,14.95-.16A78.47,78.47,0,0,1,1288.8,209C1290.55,205.43,1291.66,201.82,1291.14,197.53Zm-68.66,48.41,2.67,7.72c3,4,1.77,8.57,1.89,13,1.7,3.39,4.35,4.26,8,3.33,6.53-1.67,13.14-3,19.65-4.78,5-1.34,8-4.88,8.12-9.94a11.13,11.13,0,0,1,2.91-7.19c1.5-1.75,3.1-3.42,4.63-5.15a17,17,0,0,0,3.59-5.86c1.56-4.7.09-7.85-4.53-9.83-1.75-.76-3.8-.91-5.45-2.62,1.92-3.1,4.4-5.49,8.15-5.86a27.24,27.24,0,0,0,10.64-3.55c-2.07,8.21,3,13.83,5.72,20.12,1.63,3.74,4.83,5,8.43,3.13,6.89-3.61,14.1-4.39,21.63-4.12a14,14,0,0,0,3.7-.41c3.39-.81,5.44.46,6.47,4-1.7,1.33-3.73.89-5.54.88-7.65-.08-15.25.74-22.87,1.24-2.79.19-6.21,0-7.24,3.29-1.15,3.61,2.47,4.56,4.59,6.22.67.52,1.55.83,1.66,1.89-2.08.4-3.76-.83-5.6-1.35-5.56-1.57-8.78-.55-11.8,4.35-3.32,5.37-5.26,11.2-4.57,17.58-.6.12-1,.33-1.22.22-8-3.35-15.82-3.32-23.42,1.35-1.64,1-3.63,1.41-5.44,2.14-.85.33-1.75.72-2.49,0-3.65-3.54-8.24-2.71-12.62-2.7-6.5,0-7.06-.51-6.9-7.37-.58-3.52,1.24-7.35-1.39-10.6-1.86-1.08-4-.88-6.14-1.45C1219.2,251.12,1219.51,248.14,1222.48,245.94Zm20.82,104.92c-1.12-2.2-3.54-3.43-5.4-5.08-1.25-1.11-2.87-2.13-2.13-4.56,2.35.31,3.91,1.75,5.31,3.23,9,9.53,20.53,16.45,29,27.21-2.11.5-2.67-.61-3.47-1.17-2.47-1.74-4.71-3.85-7.35-5.26C1252.7,361.73,1246.81,357.73,1243.3,350.86Zm115.53,311.76a22.83,22.83,0,0,1-6.82,13.19c-1.9-4.87-1.28-9-.24-13.09.5-1.94,4.74-3.06,6.31-1.94A1.76,1.76,0,0,1,1358.83,662.62Zm.11-226.6c-2.51,3.89-5.71,4.48-9.43,1.5-2.38-1.89-4.79-2.91-7.85-1.79a38,38,0,0,1-4.65,1.12c-2.42.55-4.88,2-6.23-1.9-.56-1.61-2.82-1.91-4.63-2.16a46.33,46.33,0,0,0-12.22-.37A23.81,23.81,0,0,1,1300,430c-10.76-5.25-13.59-4.67-22,3.86-1.85,1.89-3.54,4-5.27,6-1.52,1.77-3.19,2.27-5.64,1.86a28,28,0,0,1-15.18-7.05c-3.62-3.39-8.34-4.71-13-5.81a16.82,16.82,0,0,1-6.65-3c-2.67-2-5.12-4.39-8.39-5.54a2.51,2.51,0,0,1-1.59-1.93c7.21-2.91,7.71-3.85,5.69-11.49-.85-3.26-1.78-6.5-3.82-9.3-3.49-4.78-8.54-6.92-14-4.82-4.83,1.87-9.69,1.93-14.64,2a78.68,78.68,0,0,1-9.59,0c-7.13-.7-13.71,1-20.09,4-5.78,2.72-11.7,5.15-17.37,8-5.41,2.76-10.85,4.18-16.8,2.23.68-3.74.68-3.8,4.06-3.84,4.31,0,8.39-1.34,12.55-2.2a9.1,9.1,0,0,0,4.43-2.85c2.74-2.76,5.22-5.78,8.42-8.11,2.13-1.53,2.84-3.85,1.13-6-1.95-2.51-.89-4.19.91-6a29.54,29.54,0,0,0,3.7-3.81,8.32,8.32,0,0,1,6.76-3.61c4.68-.26,6.84-2.93,7.78-7.29.54-2.55.21-6,2.48-7.34s5,.82,7.43,1.7a13,13,0,0,0,13.07-1.76c1.86-1.37,3.72-2.74,5.65-4,3.67-2.41,6.8-1.48,8.44,2.56,2.89,7.15,8.36,11.76,14.93,15.26a39.6,39.6,0,0,0,6.84,2.91c6,1.84,10.21,5.42,12.37,11.34a4.49,4.49,0,0,0,1,3.48l-.15.42.28.33a.54.54,0,0,1,0,.11c-.18.36-.46.48-.73.22-4.63-4.5-10.64-4.12-16.39-4.51-2.38-.16-4.69.46-5.7,2.95s.47,4.42,2.23,6c3.14,2.81,6.73,5.05,9.86,7.93,2.41,2.22,5.62,1.77,8.48.38s3.87-3.88,3.6-7c-.1-1-1.19-2.48.81-3,4,1.75,6.68.7,7.36-3.22a16.74,16.74,0,0,0-.09-6.35c-.66-3,.52-3.81,3.18-3.94a8.33,8.33,0,0,0,5.57-2.41c2.67,4.49,5.9,8.2,7.75,12.82,1.77,4.44,3.6,8.88,5.57,13.24,1.84,4.06,4.25,5.13,8.09,3.23a43,43,0,0,0,12.15-9.36c2.84-3,2.49-7.82-.25-11.3-1.18-1.51-2.63-2.82-4.52-4.8,3.94-1.26,6.15-4.59,9.83-6.29,1.37,1.79,1,3.79,1.15,5.62.27,3.55.44,7.1.47,10.65a7.45,7.45,0,0,0,4.18,6.87,80.41,80.41,0,0,1,11.9,8,12.87,12.87,0,0,0,12.17,2,8.34,8.34,0,0,1,6.14,0c5.42,2.37,10.73,1.61,16.07-.26,1.82-.63,3.7-1.11,6.29-1.89-1,9.86-.8,19.44-7.79,27.14A22.53,22.53,0,0,0,1358.94,436ZM1394.69,540a74.26,74.26,0,0,0-9.49-19.54,26.08,26.08,0,0,1-3.1-6.73c-4.87-15.2-11.74-29.63-17.29-44.56-.46-1.26-2.37-2.8,0-4s4.21-.45,5.33,2.23c2.38,5.7,5.47,11.14,6.53,17.36a7.83,7.83,0,0,0,3.83,5.54c2.27,1.31,3.06,3.2,3.38,5.62a71.4,71.4,0,0,0,3,11.3c1.63,5.33,4,10.14,8.3,14,7.31,6.54,11.14,14.94,12.66,24.53.82,5.23,1.82,10.43,2.78,15.8A39.41,39.41,0,0,1,1394.69,540Zm53.12-155.3c.48-1,1.37-.91,2.23-1.08,5.39-1.08,8.21-5.38,11.12-9.33,1.78-2.41.75-5.34-2-7.42a17.92,17.92,0,0,0-7.26-3.18,10.9,10.9,0,0,1-7.5-5.44c-2.46-4.11-5.08-8.13-7.41-12.31s.27-11,4.44-12.72a4.7,4.7,0,0,1,3.61.3c6.25,2.31,11.47.67,15.92-4.06a12.17,12.17,0,0,1,1.22-1,8.58,8.58,0,0,1,12.79,1.51c1.82,2.38,3.34,5,5.12,7.68-3.52,1.58-6.56,1.61-9.72-.46-4-2.61-7.66-2.12-11,1.17-3.12,3.1-4.1,7-3.86,11.22.11,2,1.15,3.64,3.26,3.47,3.19-.26,4.35,1.75,5.5,4,.23.47.49.94.73,1.42,2.76,5.43,2.76,5.43,8.82,8.61.35,1.5-1.1,2-1.73,2.87-2.29,3.29-2.37,4.65,0,8.13,3.79,5.49,4.3,11.93,5.51,18.18a2,2,0,0,1-1.57,2.4c-3.77,1.16-7.62,2-11.51.72-4.37-1.45-8.72-3-13-4.67C1448.71,393.56,1446.5,387.37,1447.81,384.66Zm40.33,93.95c-3.27,5.87-9.43,8.27-14.92,13.22-.5-6.35-4.1-9.69-7.72-13.06-1.28-1.2-2.79-2.39-2.9-4.32-.22-3.85-2.51-6.52-4.89-9.19-1.65-1.87-3.28-3.74-4.81-5.71-3.94-5.1-3.45-7.76,2.16-11.84,1.92,2,2.38,4.7,3.42,7.09,2.26,5.2,5.46,9.47,10.55,12.28a46.33,46.33,0,0,1,7,4.88c3.92,3.26,7.84,6.29,13.27,5.35A3,3,0,0,0,1488.14,478.61Zm109.74-300.94c-3.77,4.27-5.57,10.51-12,12.09-.13,0-.31-.15-.66-.34.77-1.62,2.3-2.49,3.56-3.58a19.84,19.84,0,0,0,5.84-8.12c.86-2.33,1.36-4.51,0-7.09-1.76-3.3-1.85-7.17-2.16-10.88a6.48,6.48,0,0,1,1.89-5.37c3.08,6.71,2.93,6.69,2.31,12.85-.3,3-1.87,6.34,1.16,9A1.46,1.46,0,0,1,1597.88,177.67Zm14.78-4a17.58,17.58,0,0,0-3.06-2.48c9-3.9,9.2-3.79,12.11,5.28C1615.92,178.05,1616,178,1612.66,173.7Zm39.69-9.8a1.46,1.46,0,0,1-1.49-1.23,37.42,37.42,0,0,0-2.37-8.61c4.74,1.85,4.55,5.3,5.06,8.33A1.34,1.34,0,0,1,1652.35,163.9Z" transform="translate(641.71 1486.86)" style="fill:url(#Motivo_nuevo_2)"/><path d="M942.67,691.75a25.8,25.8,0,0,1-11.39-7.28c-4.74-5.21-10.53-9.06-18.39-6.35a8.2,8.2,0,0,1-7.59-1.38c-3.17-2.27-6.72-4.08-9.65-6.62-5.71-4.94-12.31-6.85-19.66-6.72-1,0-1.71.15-2.11-.93-1.16-3.08-4.13-4-6.78-5.1,2.79-6.85.9-12.16-5.4-15.19a4.7,4.7,0,0,1-2.39-2.59c-1-2.09-1.77-4.28-2.9-6.28A37.47,37.47,0,0,0,842,618.73c-5-2.79-10.23-2.17-15.5-.84a4.2,4.2,0,0,1-5.25-2.55c-2-4.28-5.27-7.51-8.13-11.13-2.2-2.78-4.46-4.58-8-3.89-2.17.41-3.37-1.06-4.55-2.2s.31-2.47.71-3.65a38.66,38.66,0,0,0,2.29-9.28c.17-2.18.14-4.51-2.45-5.27-2.34-.69-3.45,1.18-4.58,2.82-.86,1.26-1,3.08-2.7,3.72-8.59-8.38-16.63-6-21.72-.15-3.42-4.42-7.86-5.35-12.81-3.23-2.29,1-3.57,1-4.29-1.6a10.75,10.75,0,0,0-1.14-2.4c-2.19-3.81-4.33-4.41-8.4-2.61-2.6,1.16-4.37,3.32-6.51,5.27-.54-1.79.72-2.88,1-4.23.79-4.09-1.36-6.6-5.51-6.24a11,11,0,0,0-5.34,2.24c-1.88,1.33-3.55,3.1-5.62,4-6.66,3-11,8.25-14.65,14.25a18.76,18.76,0,0,1-3.87,5.06c-1.34,1.09-2.57,1.79-3.72-.54-1.81-3.71-5.15-5.71-8.95-7.07-2-.73-3.91-.65-5.4,1-2.24,2.42-5.23,3.63-8,5.09-3.3,1.71-4.66,1.42-6.63-1.6-2.36-3.59-4.09-7.39-4.17-11.87a60.41,60.41,0,0,1,2-17.93,12.24,12.24,0,0,0-2.12-11.07,29.08,29.08,0,0,0-5.07-5.44c-3.19-2.67-6.66-3.53-10.21-.9-3.92,2.91-7.77,2.91-12,.14,1.3-3.59.92-7.5.85-11.37,0-2.79.44-5.28,2.56-7.27,4.07-3.79,4.56-8.67,4-13.76-.69-6-3.71-8.38-9.77-7.7-3.52.4-7,1.22-10.57,1.17-5.75-.07-9.59,3.94-9.62,9.75,0,1.57.55,3.14.6,4.72,0,1.74-.31,3.23-2.77,2.51-3.81-1.13-6.85.44-9.78,2.79-3.48,2.79-3.79,2.78-7.16-.33-3.13-2.89-6.08-6-9-9.11-1.92-2.1-3.68-4.49-4.19-7.33-1.45-8-2.92-16.07-.2-24.17,1.68-5,2.38-10.09-.22-15-.92-1.73-.23-2.64,1-3.56a14.28,14.28,0,0,1,2.64-1.79A26.91,26.91,0,0,0,600.42,457a3.51,3.51,0,0,1,3-1.83c6.13,0,12.24-1,18,3,5,3.48,9,1.7,10.25-4.16.68-3.29,2.41-4,5.17-3.93a42.44,42.44,0,0,0,11.13-.88c2.32-.58,4-.06,5.24,2.26,2.09,3.88,5,6.56,10.14,4.07a64.48,64.48,0,0,0,2.82,11.83c1,2.85,2,5.94,4.57,7.64a9.36,9.36,0,0,1,4.24,6.35c.64,2.74,2.28,4.83,5.5,4.92s4.88-1.75,6.09-4.33A20,20,0,0,0,688,467.37c-2.1-7.12-3.59-14.46-7.52-21-2-3.29-1.2-7.15,1.78-9,11-6.75,18.4-17.75,29.38-24.53,3.08-1.9,4.49-5.8,1.62-9.79a10.64,10.64,0,0,1-2.36-5.78c7.61-.23,10.81-4.73,9.43-12.93,5.8-1.84,6.5-2.61,6.61-7.26.08-3.34.09-3.46,3.51-3.07a24.46,24.46,0,0,0,12-1.49c5.18-2.05,6.15-4.65,3.59-9.48-.24-.47-.59-.89-.83-1.36-1.57-3.11-1.31-4.66,1.11-7.15a12.27,12.27,0,0,1,8.69-3.46c2.92-.12,5.78-.33,7.67-3.6.55,2.48.83,4.23,1.33,5.93,1.3,4.44,4.17,6,8.52,4.6a11.59,11.59,0,0,0,4.18-2.28c3.41-3.15,7.56-4.46,11.93-5.43,3.81-.85,7.59-1.8,11.4-2.66a17,17,0,0,0,5.92-2.3c2.06-1.41,3.19-3.28,2.26-5.93-1.17-3.35-2.22-6.76-4.11-9.8-2.37-3.84-5-4-8.09-.63-1.11,1.22-1.5,3.22-3.17,3.6a1.45,1.45,0,0,1-1-1.49c-.81-8.23-2.19-8.92-9.26-4.53-.67.41-1.14.75-1.8.11a1.43,1.43,0,0,1-.29-1.91,11.68,11.68,0,0,0,1.5-6.54,14.32,14.32,0,0,0,11.81-3.87c4.73-4.17,10.33-6.43,16.11-8.45,3.44-1.46,4.87-5.2,8.43-8.05-.11,5.25-4.24,6.51-6,9.33-2.06,4.11-3.06,8.64-5.56,12.62-2.37,3.78,0,7.52,4.64,7.63a106.26,106.26,0,0,0,12.23-.4c1.76-.15,3.11-.15,4.2,1.35,1.85,2.58,4.06,2.49,6.44.77s4.72-1.62,7.3.12c3,2,5.35.87,6.39-2.54a8.19,8.19,0,0,0-.76-6.19c-.94-1.9-2.24-3.65-3-5.62-2.4-6.11-5.41-10.63-13.35-8.89-3.35.73-5.06-2.67-3.43-5.86,1.53-3,3.21-5.93,4.8-8.89,3.19-6,2-9.28-4.33-11.34a12.13,12.13,0,0,1-7.37-6.13c-3.25-5.72-7.49-11-15.31-10.54a4.06,4.06,0,0,1-4.39-3.07,26.62,26.62,0,0,0-4.39-7.27q-7-9.08-14-18.13a32.65,32.65,0,0,0-2.37-2.88c-2.61-2.69-5.06-2.81-7.93-.38-1.78,1.5-2.93,3.54-4.25,5.43a32,32,0,0,1-4.2,5.49c-1.72,1.6-3.49,2.24-5.77,1-1.71-.94-3.46-1.73-4.75-3.31-1.12-1.38-1.52-2.32-.21-4.09,2.78-3.73,2-6.4-2-8.57a21.52,21.52,0,0,0-8.11-2.46,22.43,22.43,0,0,1-12.14-4.9,18.83,18.83,0,0,0-12.43-3.92,125.66,125.66,0,0,0-15.39,1.21c-3.67.52-5.12,1.53-5.76,5.13-.76,4.17-1.87,8.42-1.08,12.67.41,2.27-.13,2.95-2.22,3.79-4.39,1.76-4.66,4.73-.69,7.26a30.39,30.39,0,0,1,8,7.73c3.08,4.14,2.81,6.5-1.12,10a8.33,8.33,0,0,1-3.57,2.15,25.91,25.91,0,0,0-3.28-2.71c-2.66-1.58-5.67-1.28-7.38.61a4.56,4.56,0,0,0,0,6.34c3.27,3.91,3.64,8.73,4.84,13.31,2.09,8,1.53,8.56-6.78,6.83,1.09-4.78,1.14-6.37.33-10.4-1.06-5.22-2.31-5.82-6.94-3.37a13.31,13.31,0,0,1-1.84-5.46c-.86-5.07-3.9-7.22-9.07-6.78-1.75.14-3.41,1-5.25.39-10.95-3.42-22.73-4.26-32.73-10.68-3.37-2.16-7.11-3.32-11.15-1.72-2.08.82-2.92-.22-3.31-2.09-.93-4.37-3.6-6.86-8.1-7.08-2-.1-2.64-1-3.13-2.83-1.19-4.37.32-7.66,3.61-10.36,6.46-5.28,13.22-10.2,18.95-16.34,1.91-2.07,4.67-2.48,7.36-2.64a56.13,56.13,0,0,1,7.45,0,6.26,6.26,0,0,0,5.55-2.22,5.68,5.68,0,0,1,.2,1.28c-.11,4.65,1.2,6,5.74,6.08,2.78,0,5.17-1.12,7.58-2.25,2.25-1,4.39-2.33,6.71-3.2,3.65-1.38,3.69-1.28,5.24,3.43-2.92-.64-5.7-.82-8.06,1.22-1.68,1.45-2.46,3.17-1.17,5.14,1.6,2.41,4.12,3.22,6.92,3.28,2.57.06,4.61-.81,5.23-3.51.35-1.5.94-2.1,2.52-1.81a7.63,7.63,0,0,0,2.65-.08c3.63-.61,7.6-4,8-7,.53-4-2.1-6.2-5.2-7.85-2.49-1.33-5.13-2.4-7.71-3.59s-4.94-2.73-6.14-5.56c3.23-2.16,7.06-2.56,10.4-4.18,6.12-3,7.1-8.51,2.34-13.35a42.42,42.42,0,0,0-3.55-2.93,2.88,2.88,0,0,1,2.49-2c4.84-1.18,9.81,1.27,14.67-.43.18-.07.52.43.82.62a6.07,6.07,0,0,0,4.63.55c2-.39,4.38-.45,5.12,1.61s-.73,4.06-2.43,5.51a12.81,12.81,0,0,1-1.83,1.09c-1.94,1.15-3.54,2.62-3,5.1.53,2.3,2.62,2.81,4.57,3,3.81.41,7.64.63,11.51.92-1.69,4.22-1.69,4.22-5,3.52a56.65,56.65,0,0,0-6.77-1.34c-4.55-.37-8.24,1.9-9.15,5.66a19.35,19.35,0,0,0,.24,10c1,3.46,2.86,4.26,6.39,3.44,3.77-.88,7.39-3,11.39-2.24,6.6,1.18,14-.94,19.5,4.85a.78.78,0,0,0,.47.23c3.38-.12,5.52,2,7.73,4.09,1.41,1.33,3.44,2.24,4.83,1,2.7-2.34,4.27-.82,5.51,1.18,1.63,2.65,3.83,3.4,6.73,3.23a37,37,0,0,1,5.85.3c2.36.24,4.21-.13,4.91-2.81.58-2.22,2.12-2.09,3.72-1.16,1.84,1.08,3.54,2.42,5.44,3.34,2.85,1.38,5.25.2,5.37-2.85.25-7-.66-13.57-7.7-17.4-1.86-1-3.71-2.1-5.5-3.25-.9-.58-2.31-.87-2.13-2.62a7,7,0,0,1,3.15.55c3.31,1,5.87,3.28,8.66,5.15,2.61,1.74,5.6,3.26,8.46,1.6,4.69-2.72,9.64-5.1,12.77-10.09,4.33-6.9,4.36-7.41-3.7-8.85-5.35-.95-10-2.67-14.15-6.59-3.65-3.47-8-6.72-13.86-4.21-1.6.69-2.72,0-3.13-1.77-.53-2.25-1.16-4.47-1.62-6.73-1.59-7.79-1.85-8.07-9.77-9.55-.53-.09-1.06-.15-1.59-.23-15.33-2.26-29.37-8-42.42-16.19-5.78-3.63-11.71-5.83-18.63-4.16a30.2,30.2,0,0,1-4.77.4c-1.67,1.31-3.67,1-5.53.93a101.91,101.91,0,0,0-15.52.78h0c-1.57.23-3.15.38-4.7.7-5.52,1.1-6.08,1.81-4.86,7.43.58,2.65-.16,3.64-3,3.45.85-4.94,1.83-9.9-3.36-14.65l17.82,1.28c2.93,0,5.85-.09,8.78-.05a27.61,27.61,0,0,0,8.63-1h0a12.8,12.8,0,0,0,2.14-1.54c3.5-3.73,2.94-6.46-1.89-8.44-4.12-1.69-8.41-3.07-12.92-2.82-10,.58-19.95-.6-29.83.12s-17.92-2.12-25-8.88c-3.51-3.37-8-5-12.72-6.31-6.28-1.77-12.87-2.64-18.71-5.84-2.07-1.12-3.32-.3-4.09,1.77a8.46,8.46,0,0,0,3.66,10.58c4.7,2.77,9.52,5.31,14.8,8.23a40.63,40.63,0,0,0-5.17.55c-2.7.67-5,3.28-5.06,5.59,0,2.95,2,4.27,4.4,5.41,1.54.75,3.57.31,4.84,2-1.06.7-2.12,1.34-3.12,2.06a25.15,25.15,0,0,0-3.33,2.65c-2.94,3-2.69,5.65.71,7.92a12.92,12.92,0,0,0,2.44,1,1.45,1.45,0,0,1,1,2.08c-1.43,3.48,0,6.61,1.16,9.77,1.21,3.33,2.72,6.6,3.21,10.13,1.08,7.71,1.31,5.8-5.25,8.45-1.89.76-3.07.3-3.18-2-.17-3.89-.61-7.78-.55-11.66,0-2.56-.9-3.79-3.34-3.48a47.88,47.88,0,0,1-11.16,0,5.68,5.68,0,0,0-3.52,1c-3.46,2.1-3.7,5.28-.49,7.67.69.52,1.59.78,2.34,1.25a3.61,3.61,0,0,1,1.84,3.58c-.19,1.88-1.72,2.17-3.1,2.29a74.07,74.07,0,0,1-7.45.24c-8.51-.16-17-1.56-25.54-.31-1.05.15-2.53.32-2.85-1.25,1.8-1.66,4-1.61,6.1-1.57a35.25,35.25,0,0,0,9.5-1c4.11-1.06,7.57-3.09,9.64-7,2.32-4.33,1-8.18-3.52-9.95a14,14,0,0,0-6.24-1.2c-4.39.36-7.32-2-10.12-4.9-1.91-2-2.34-3.84-.58-6.08,1-1.25,2.34-2.56,2-4.22a4.19,4.19,0,0,1,2.3-5.12c1.4-.82,2.06-2.49,2.54-4,1-3,3.29-3.46,5.88-3.44s5.79-1.22,7.27,2.49a4.29,4.29,0,0,0,3.31,2.44,13.64,13.64,0,0,0,14.59-6.57c2.46-4.14,1.46-7.83-2.64-10.42-1.35-.85-3.16-.64-4.22-2,2.61-7.87-1.27-15.24-9.09-18.08-7.24-2.63-14.65-2.46-22.11-2.08-5,.26-8.36,3.59-8.33,7.92,0,3.82,3.59,6.86,8.51,7.16a33.12,33.12,0,0,0,8.47-.8c1-.2,2.6-.69,3,.21,1.73,3.92,5.47,4.51,9.61,5.55-2.81,1.23-5,.71-7,.75a94.8,94.8,0,0,0-11.18.4c-2.6.35-4.82,1.14-6.36,3.36-1.72,5.51-.5,11-.3,17.06l-6.32.95c4-5.74,5-11.69,4.78-18-4-4-5.52-4.27-10.2-1.86-3.25,1.68-3.35,1.76-5.82-1.47a7.49,7.49,0,0,0-7.89-3.15c-1.31.23-2.59.57-4.12.91a10.82,10.82,0,0,0,1.18-2.67,59.16,59.16,0,0,0,.35-6.38c0-7.12-3.18-9.32-9.84-6.53-3.42,1.44-6.59,3.49-9.94,5.1-2.26,1.09-4.55,2-5.61,4.56s.25,4.57,1.43,7c-1.49-.19-2.36-.34-3.23-.41-4.1-.35-8-.74-10.45-5-1.23-2.13-3.92-2.92-6.52-3.13a21.93,21.93,0,0,0-7.41.52c-6.34,1.68-12.64,3.53-18.93,5.38-.81.24-2.11.87-2.13,1.36-.13,3.16-2.77,3.52-4.71,4.82a5.53,5.53,0,0,0-2.64,6,4.34,4.34,0,0,0,4.36,3.34c7.05.17,14.19,1.26,21.06-1.56a14.62,14.62,0,0,1,5.64-1.45c1.06,0,1.48.74,1.68,1.7.23,1.16-.32,1.61-1.38,1.63a15.39,15.39,0,0,0-7.49,2.49,5.82,5.82,0,0,1-3.63.65c-7.43-.92-14.89.29-22.36-.42-5.79-.55-7.45,1-9.12,6.6-.55,1.86-1.16,3.72-1.86,5.55a4.19,4.19,0,0,1-2.82,2.93c-2.63.73-4.62,2.23-4.2,5.24s3,3.66,5.47,4.28a6.62,6.62,0,0,0,1.59.17,7.91,7.91,0,0,1,7.27,3.56c.71,1.05,2.11,1.63,4,3-4.1-.83-7.19-1.61-10.35-2.05-3.47-.47-5.64,2.48-8.54,4l-1.55-2.45c-2.8-4.37-3.9-4.76-7.88-1.54-2,1.63-3.45,1-5.27.24-5.32-2.27-10.43-2-15.09,1.62a8.65,8.65,0,0,1-7,1.7c-2.8-.42-5.61-.84-8.4-1.36a19.2,19.2,0,0,0-7.4-.2c-1.63.32-3.19.79-3.69,2.59-.92,3.36-4,4.09-6.27,5.88a19.37,19.37,0,0,0-2.48-2.68c-4.65-3.33-9.45-6.56-15.59-5.29A27.24,27.24,0,0,1,317,162.3a53.69,53.69,0,0,0-8.86-1.78,213.58,213.58,0,0,1-26.44-2.92c-7.29-1.4-14.53.19-21.79.45-4.17.15-8-.09-11.31-3.19-2.26-2.08-5.05-3.22-8.34-1.7-2.34,1.1-4.34.34-6.19-1.55a16.44,16.44,0,0,0-4.4-2.94c-3.27-1.66-4-1.36-5.81,1.9-1.09,2-1.81,4.36-4.3,5.15-3.36,1.05-6.64,2.58-10.33,2.12a9.88,9.88,0,0,0-4.74.39c-5.8,2.12-11.89,3.65-16.35,8.46-2,2.17-4.43,3.36-7.65,2.29a10.11,10.11,0,0,0-4.74-.06c-2.79.51-3.63,2.08-3.23,5,.57,4.27,2.67,7.25,6.91,8.54a13.56,13.56,0,0,1,3,.23h.07c7.52,1,16.27,5,18.63,9-4.67-.4-8.81-1.56-11.83-5.15a5.28,5.28,0,0,0-5.54-2.11,16.59,16.59,0,0,1-7.77,3.21,52.17,52.17,0,0,0-12.1,4c-2.18,1-2.94,2.31-1.74,4.62,3.56,6.82,8.57,11.68,16.58,12.72,1.72.22,3.6-.14,5.28,1.32-1.92,1.61-3.76,3.23-5.66,4.77-7.11,5.74-7.34,7.08-2.64,15.05.15.25.06.63.1,1.13a15.68,15.68,0,0,0-8.16,2c-2.54,1.43-3.22,3.49-1.49,5.62,2,2.51,4.51,4.74,8.09,4.34,3.07-.34,4.25-2.85,5.26-5.39.21-.54-.16-1.48.72-1.53a3.23,3.23,0,0,1,2.1,1.78c3.4,5,5.5,5.45,10.76,2.22,1.38-.85,2.36-2.47,4.43-2.69,0,1-.05,1.72,0,2.42.24,3.81,2.41,6,5.79,7.54,3.62,1.62,4.32-2,6.87-3.85a19.8,19.8,0,0,0,1.9,2.73c3.52,3.58,3.54,3.54,7.85,1.14.53-.29,1.21-.72,1.73.32-1.9,2.17-4.52,3.33-7,4.63-3.46,1.81-7,3.46-10.49,5.22-6,3-11.36,7.31-18,9a3.91,3.91,0,0,0-2.28,2.13,6.82,6.82,0,0,0,.2,7.56c1.52,2.24,3.87,2.4,6.23,1.85,5.72-1.35,11.08-3.72,16.43-6.12,1.45-.65,3-1.77,4.43-1.63,4.46.45,7.88-1.7,11.34-3.86,3.62-2.25,7.25-4.51,10.73-7,2.29-1.6,3.8-1.67,5.62.82,2,2.69,4.93,4.56,8.33,3.3,5.84-2.16,10.6-5.81,12.47-12.13,1.31-4.44.48-5.72-4.16-7.23.64-1.42.76-3.1,2.32-4,3.25,3.92,5.77,4.24,10.52,1.32,1.94-1.19,3.45-3,5.88-3.5a19.47,19.47,0,0,0,11.16-6.82c2-2.31,3.7-2.88,6.28-.95,3,2.29,6.32,4,10.33,2a3.74,3.74,0,0,1,2.6.23c8.65,3.15,18,3.81,26.44,7.91a55,55,0,0,0,9.6,3.13c5.68,1.55,9.19,4.73,10,10.92.86,6.59,2.35,7.69,8.79,8.44s7.47,2,7.2,8.83c-.26,7.07.77,13.55,8.13,17a25.06,25.06,0,0,1,3,2.19c2.18,1.48,4.31,3.47,7.23,2.42,3.48-1.26,2.51-4.59,2.91-7.25,7.24,3.06,8.11,4.38,7.8,11.76-.26,6,2.37,9.61,8.28,11.19a12.18,12.18,0,0,1,5.32,3.35c2.29,2.19,4.15,4.85,7.17,6.28a4.37,4.37,0,0,1,2.24,3.41c1.31,7,2.87,13.9,2.11,21.11-.65,6.18-.81,12.4-1.42,18.59a33.47,33.47,0,0,0,4.07,20.05c5.22,9.26,10.95,18.23,16.65,27.21a76,76,0,0,0,6,7.44c1.39,1.67,3,3.42,5.25,3.27,4.64-.29,6.61,2.79,8.45,6.1,3.1,5.61,5.3,11.62,7.71,17.53,2.12,5.23,3.8,10.75,9.56,13.51,2,.95,1.93,2.64.49,4.41a13.51,13.51,0,0,0-3.13,6.68c-.46,3.19,1.11,5.11,4.34,5.26a31.93,31.93,0,0,0,4.24-.3c.89-.07,1.94-.22,2.42.64,2.48,4.43,7.54,7.2,8.23,12.78a6.49,6.49,0,0,0,4.39,5.57,11.81,11.81,0,0,1,5.64,4.61,16.31,16.31,0,0,0,2.51,2.74c2.5,2.12,5.54,2.39,7.86.83a6.78,6.78,0,0,0,2.62-7.54,11,11,0,0,0-4-6.13,21.22,21.22,0,0,1-8.93-15.5c-2.14-3.62-5-6.77-7.34-10.27a33.13,33.13,0,0,1,8.36,8.21c4.06,5,7,10.69,10.4,16.08a26.55,26.55,0,0,0,6.43,6.88c5.8,4.5,10.41,9.74,9.91,18.23a17,17,0,0,0,8.27,15.78c4.19,2.67,8.5,5.18,12.89,7.51a22.85,22.85,0,0,1,8.73,7.51c2.69,4.06,6.41,6.46,11.63,6.19a10.15,10.15,0,0,1,9.44,4.74c3.7,5.3,8.63,4.65,11.59,0s5.81-4.51,9.58,0c2.28,2.72,4.75,5.29,6.92,8.09,4.76,6.13,12.53,6,18.72,9.2a3.66,3.66,0,0,0,1.59,0c8.15-.3,14.52,5.36,15,13.46.27,4.6,2.09,8.29,6.14,10.53a37.56,37.56,0,0,1,10.43,9,14.23,14.23,0,0,0,5.95,4.34,13.51,13.51,0,0,1,6,4.11c2.35,2.9,4.8,3,8,1.17a10.29,10.29,0,0,0,5.06-6.55c.22-.86.46-1.85,1.48-2a2.63,2.63,0,0,1,2.58,1.57,8.63,8.63,0,0,1,.76,1.4c1.29,3.69,3.12,7.13,4.71,10.69a18.8,18.8,0,0,1,1.19,13,33.89,33.89,0,0,0-1.26,6.26c-.22,2.76-1.54,4.78-2.91,7.12-3,5-7,8.87-11.12,12.75-5.4,5.07-8.09,10.75-3.87,17.91a10.5,10.5,0,0,1,.42,1c1.91,4.41,2,8.56-1.48,12.35a12,12,0,0,0-1.83,3.24c-2.62,5.77-1.94,11.26,3.24,14.76,5.52,3.74,8.48,8.41,10.16,14.73,1.43,5.44,4.53,10.43,6.18,15.83a45.36,45.36,0,0,0,6.54,13.29c1.87,2.63,3.7,5.47,3.77,8.69.15,7.58,4.46,12.3,10.57,15.39,5.26,2.68,9.84,6.22,14.73,9.38,8.46,5.46,11.63,13,11,22.6-.32,5.32-1,10.61-1.35,15.92-.65,9.89-3.23,19.68-1.63,29.68a8.91,8.91,0,0,1-3.13,9c-2.7,2.32-4.17,5.38-2.2,9,.59,1.08.63,2.14-.37,2.84-3.76,2.63-2.88,5.93-1.77,9.5,1.06,3.36,2.17,6.88.7,10.41-2.53,6-3.94,12.53-7.31,18.25a11.74,11.74,0,0,0-1.75,7.15,5.79,5.79,0,0,1-1.87,5.15c-2.69,2.68-3.39,6.62-.94,9.21,3.52,3.72,2.45,7.09.84,10.66a21.55,21.55,0,0,0-.57,16.6c1.39,3.92.48,7.24-1.33,10.67-2,3.79-4.72,7.09-7.06,10.64-2.22,3.36-3.21,7-.83,10.46,2.12,3.1,2,5.76,0,8.68a12.63,12.63,0,0,0-1.1,2.42c-1,2.5-1.73,5.1-.94,7.78.69,2.34,2.86,3.33,5,4.2-4.46,6.61-4.42,7.67,1.48,11.93,2.19,1.58,2.21,3.36,2,5.54-.47,4.5,1.43,7.9,5,10.55a13.28,13.28,0,0,1,2.93,2.26c4.64,6.23,11.42,9.23,18.18,12.31a16.35,16.35,0,0,0,10.94,1c6.54-1.61,13.08-3.25,19.58-5.06,4-1.12,5.81-2.88,5.25-5-.88-3.31-3.89-3.51-6.48-3.4-9.12.4-14.33-5.31-18.84-11.89-3.2-4.67-1.95-10.45,2.37-14.2,3.89-3.38,7.67-6.88,11.49-10.34,3.48-3.17,5-7.32,5.42-11.83.37-3.5-.69-4.83-4.21-5.56-2-.41-4-.51-6.12-.75.37-2.35,2-3.28,3.27-4.44a32.64,32.64,0,0,0,5.24-6,48.8,48.8,0,0,1,7.37-9,18.35,18.35,0,0,0,5.13-8c1.19-4-.07-5.64-4.19-5.65-3.53,0-3.53,0-3.68-4,3.07.87,6.09,1.93,9.19,2.56,4.33.88,6.47-1.13,6.12-5.44-.16-1.94-.54-3.87-.64-5.81s.49-3.3,3.06-2.91c5.7.83,11.31-.32,16.94-1a8.66,8.66,0,0,0,6.78-4.5c2-3.36,3.93-6.76,6-10,2.65-4.09,4.6-8.19.86-13.11,8.15,1.44,11.46.45,16.59-4.81,2.48-2.54,4.8-5.24,7.2-7.86,3.69-4,6.4-8.48,6.88-14.08a17.06,17.06,0,0,1,1-3.58c.48-1.47,1.16-2.46,3.07-2,3.26.76,5.09-1.35,6.17-3.88a41.51,41.51,0,0,1,6.87-10.7,14.28,14.28,0,0,0,3.17-13c-.47-2.07-.91-4.16-1.28-6.25a4.29,4.29,0,0,1,1.72-4.69c9.71-6.91,19.24-14.14,31.88-14.75,4.73-.23,7.93-2.53,9.51-7.17a71.54,71.54,0,0,1,8.12-16.71c1.78-2.66,3.61-5.79,3.11-8.9-.94-5.74,1.08-10.81,2.35-16.1.71-2.93,1.47-5.84.29-8.88-2.64-6.85-.64-12.23,4.77-17.08,10.4-9.35,16-21.55,19.41-34.83C959,705.42,953.57,695.44,942.67,691.75Zm-173.38-385c1.13-1,2.29-.59,3.46-.09,2,.82,3.89,1.64,5.83,2.44,2.38,1,1.16,2.95,1.49,5.63-6.18-6.4-11.91-4.3-18-1.78ZM706.9,347.06c-6.77,2.6-12.52,5.31-17.11,10C694.35,347.21,696.91,345.7,706.9,347.06Zm-28.71-14.94c1.26,1.49,0,2.49-.26,3.6-.73,3.65-1.87,7.26-.54,11,.76,2.14-.34,3.3-2.41,4.36-1.5-1.71-1.56-3.79-1.45-5.8.28-4.61-.68-8.78-4.4-12.32A20.76,20.76,0,0,1,678.19,332.12Zm-17.54-1.41c-10.26,5.76-13.82,14.24-12.46,25.19.32,2.6.89,5.2-1.14,7.7-2.17-2.14-1.53-4.78-1.33-7a79.2,79.2,0,0,0,0-14.28c-.74-7.92,3.14-11.53,11.86-11.89A22.37,22.37,0,0,1,660.65,330.71Zm-34.65-12c6.59-2.32,12.1-6.48,17.78-10.35a2.07,2.07,0,0,1,2.86.38,30.41,30.41,0,0,0,9.76,7.17c.87.38,1.48,1,1,2.08s-1.09,2.22-2.25,1.87c-4.06-1.27-8.91.58-12.35-3.23-1.21-1.33-2.88-1-4.47-.48a57.23,57.23,0,0,0-8.4,3.21c-1.36.69-2.79,1.62-4.32.29C625.74,319.26,625.79,318.74,626,318.67ZM718.18,183c1.69-2.69,1.7-2.69,5.36-.15a75.65,75.65,0,0,0-8.23,4.87C716.27,186.11,717.2,184.51,718.18,183Zm-72.56,25.69c0,.07,0,.15,0,.22l-.13-.15.14-.07c.07-1.11-.17-2.27.58-3.27C648.11,207.27,648.15,207.3,645.62,208.65Zm3.7-40.6c1,.2,2.39,0,2.56,1.3a3,3,0,0,1-1.84,3.46c-2.64.94-5.22,2-7.42,4.6-1-3.57-2-6.64-6.15-8.66C641.54,167.62,645.39,167.23,649.32,168.05Zm-37.61-41a28,28,0,0,0,18.67,9c1.23.1,2.46.32,4.14.54-1.88,2-4.17,2.28-6.1,3.24s-4.24,1.78-5.94,3.44c-1.33,1.28-2.51,2.79-2.05,4.64,1.65,6.61,2.22,13.88,9.64,17.3a12.12,12.12,0,0,1,2,1.64c-2.68.8-4.5,2.4-6.76,3.69-5-7.82-12.53-13.34-17.45-21.11,1.4-1.08,3.22-.86,4.93-1.13,3.64-.57,5.58-2.42,6-5.68.38-2.93-1-5-4.27-6.44a40,40,0,0,0-4.83-2.18c-2.45-.7-4.25-1.43-4.13-4.65.08-2.32-2.41-3.68-3.93-6C605.64,123.76,609.14,124.38,611.71,127.09Zm-412.9,81.49c1.12-1.9,2.3-3.2,5.18-2.68C202.61,208.19,201.24,209.23,198.81,208.58Zm249-45.09c-2.4-1.61-5.71-1.7-8.87-1.91,5.07-1.92,11.33-1.65,13.78-8.43,4.39,5.89,7.42,11.91,12.69,16.2C459.43,167.13,453.07,167.06,447.77,163.49Zm60-49c-1.62,2.19-2.35,3.36-3.25,4.38-2.52,2.88-3.42,3-6.77.85-1.49-1-2.94-2-4.39-3-.41-.29-.76-.68-1.36-1.22C496.89,111.32,501.85,116.42,507.75,114.51Zm-32.58,20.67a13.44,13.44,0,0,1,5.5-3.92c1.57,1.63,2,3.84,3.22,6.34C480.16,137.84,477.71,136.58,475.17,135.18Zm11.54,312c-2.17-1.49-3.39-2.89-3.51-5a1.52,1.52,0,0,1,1-1.64,1.19,1.19,0,0,1,1.51,1C486.12,443.19,487,444.74,486.71,447.14ZM518.4,141.19c-.34,1.09-1.39.7-2.21.35-4.32-1.84-8.73-.81-13.09-.3-3.17.37-6.29,1-9.44,1.52-2.79.45-5.25.05-7-3.08,5.39,1.06,10.35.08,15.4-.89a30.49,30.49,0,0,1,14.74.7C517.73,139.76,518.73,140.18,518.4,141.19Z" transform="translate(641.71 1486.86)" style="fill:url(#Motivo_nuevo_2)"/><path d="M1053,60.69a21.28,21.28,0,0,0-26.37,2.87c-1.87,1.9-3.65,3.91-5.65,5.64-4.56,4-8.7,3.28-12-1.82a14.6,14.6,0,0,1-1-1.85c-4.24-9.11-9.95-17.69-10.13-28.26a2.26,2.26,0,0,0-.08-.51c-1.2-5.1-3.17-6.41-8.33-5.82-2.09.24-4.05,1.12-6.3.66-4.94-1-9.89-1-14.62,1.17-1.36.63-2.15.44-2.79-1.17-1-2.57-3.49-3.33-6-3.87-6.08-1.3-12.13-2.68-18.23-3.88-5.93-1.16-12-2.31-18-1A101.9,101.9,0,0,1,903.39,25c-6.93.16-13.95.65-19.93,4.77a33.51,33.51,0,0,1-12.64,5.37c-3.16.61-5,2.36-6.36,5-1.55,2.94-2.53,6.22-4.79,8.83-2-1.58-2.3-4.1-3.79-5.87-2.56-3-5.42-3.19-8.21-.41a8.33,8.33,0,0,0-2.49,5.72c-.08,1.77-.17,3.55-.15,5.32.08,7.35-4.4,9-10.45,8.84a9.57,9.57,0,0,1-5-1.59c-2.74-1.83-5.87-2.43-9.08-2.77a62.73,62.73,0,0,0-18.54,1.16,36.5,36.5,0,0,0-13.41,4.9c-2.47,1.61-4.26,3.64-3.8,7,.43,3.15-.33,3.72-3.23,3-8.37-2-14.81,2.58-15.37,11-.31,4.58-.88,5.14-5.29,5.12-5.21,0-8.63,1.93-10.11,6.88-.91,3.06-2.78,4.29-5.35,5.25a25.5,25.5,0,0,1-8.82,1.74c-2.65,0-5.35.09-7.84,1.27-3.62,1.72-4.14,4.88-1.21,7.63a10.4,10.4,0,0,0,8.31,2.89c3.19-.28,5.43,1.1,7.18,3.64,1.31,1.89,2.6,3.82,4.09,5.57a7.69,7.69,0,0,0,11.32.9,44,44,0,0,0,3.57-3.82c3.84,3.36,8.15,2.7,12.34,1.94a34.33,34.33,0,0,1,11.08.09c8.41,1.15,15.88,4.9,23.72,7.69,5.35,1.91,8,5.4,8.45,11,.44,5.12,1.32,10.2,2,15.31.23,1.82.57,4,2.34,4.47,2.69.71,2,2.36,2,4.08-.07,7,1.58,9.07,8.93,10.73-5.78,5-3.51,10.39-1.39,15.81.52,1.32,1.15,2.6,1.69,3.91,1.19,2.86,2.73,5.4,5.79,6.62,1.44.58,1.72,1.71,2.24,3.14,2.29,6.36,4.93,12.47,11.62,15.83a29.43,29.43,0,0,1,9.38,7.78c3.69,4.49,4,4.72,9.34,2.38,2.13-.94,3.07-1,3.81,1.49,1.45,4.84,5.79,6,10.39,4.3,5.05-1.92,8.69-5.5,9.82-11a37.52,37.52,0,0,0,.57-6.88c.05-2.23.37-3.41,3.26-3.34,4.48.1,6.73-2.62,6.66-7.1a13.84,13.84,0,0,0-.63-3.65c-.72-2.45-.46-4.06,2.57-4.54a11.85,11.85,0,0,0,5.75-2.66c3.85-3.27,8.1-3.79,12.94-2.86,6.38,1.23,12.12.45,14.81-6.73a7.19,7.19,0,0,1,.61-.87c1.93-3.3,4.67-4.72,8.63-5.11,8.63-.85,17.39-1.47,25.38-5.41,4.62-2.28,9.15-4.7,14.64-4,2,.25,4.4-.45,4.74-2.59.39-2.49,1.63-2.87,3.68-3.35,6.62-1.58,8.95-6.75,6.17-13-1.15-2.59-2.14-5.25-3.18-7.88-.8-2,.08-2.91,2-3.41,2.86-.75,5.63-.1,8.45.2,7.46.79,9.83-1.34,9.78-8.69,0-1.06,0-2.13,0-3.2,0-5.08.89-9.73,4.27-13.9,3.13-3.85,2.07-6.18-2.8-7.61-2.91-.85-3.93-2.3-3.71-5.3.17-2.45,1.51-4.33,3.07-6.06,2.85-3.16,5.71-6.34,8.65-9.42,4.79-5,9.63-9.85,16.14-12.85a13.86,13.86,0,0,0,7.94-10.13A6.12,6.12,0,0,0,1053,60.69ZM832.62,155c1.47-1.08,2.53-.65,3.84.11A3.1,3.1,0,0,1,832.62,155Zm154.19,5.93c-1.23-.33-3-.33-3.25-1.95-.16-.89.16-2.27,1.64-2.12a2.8,2.8,0,0,1,2.71,2.64C987.91,160.3,987.62,161.14,986.81,160.92Z" transform="translate(641.71 1486.86)" style="fill:url(#Motivo_nuevo_2)"/><path d="M1980.26,710.37c-4.15-7.66-9.56-12.74-18.26-13.66-3.08-.32-6.41-.92-8.1-4.32-.57-1.16-1.84-.79-2.88-.7-2.3.19-4.61.59-6.9.55-3.49-.07-5.09-2.06-4.72-5.56a17.37,17.37,0,0,1,2.11-6c.79-1.55,2.2-2.77,2.6-4.87-2.32-1.32-5-1.31-7.54-2-7.6-2-8.38-4.55-2.93-10.38a22.39,22.39,0,0,1,4-3.52c3.54-2.27,7.08-1.75,9.2,1.86,1.47,2.52,3.19,3.73,5.91,3.45,4.29-.43,7.41,4.07,12.08,2.48,4.07-1.39,8.38-1,12.68-.65a35.11,35.11,0,0,1,17.83,6.34c4.48,3.23,9.14,6,14.57,7.53,4.15,1.13,7,4.29,9,7.88a21.27,21.27,0,0,0,8.86,8.89,9,9,0,0,1,4.8,6.65,22.7,22.7,0,0,0,9.28,13.86c6.08,4.41,7.75,10.84,8.69,17.56a4.23,4.23,0,0,1-5.82,4.77c-9.76-3.35-18.8-7.82-22.41-18.66-.58-1.77-.39-4.13-3.13-4.28-2.57-.14-5.22.19-6.73,2.4-3,4.37-4.44,9.7-8.38,13.53-.74.72.09,1.63.38,2.44,1.21,3.33,2.42,6.67,3.55,10a32.48,32.48,0,0,0,6.71,12c7.19,7.8,11.89,16.74,13.08,27.4.19,1.75.85,3.44,1.21,5.18.94,4.53,3.33,7.69,7.92,9.12a28,28,0,0,1,5.26,2.54c1.94,1.09,3.45,2.65,3.54,5,.14,3.8,2.22,6.69,4.26,9.58,2.45,3.49,4.94,7,7.67,10.24a40.3,40.3,0,0,1,8.75,19.71,161.1,161.1,0,0,1,2.14,31.31c-.27,8.5-3.38,16.36-7.5,23.66a103.39,103.39,0,0,0-10,22.87c-1.46,5.16-4.42,8.71-10,9.88-4.07.85-7.39,3.35-10.76,5.69-4.87,3.37-5.46,3.31-10.2-.17a19.45,19.45,0,0,0-2.72-1.67c-1.39-.71-2.71-.82-3.64.8a17.46,17.46,0,0,1-1.46,2.23c-3.08,3.81-6.68,4-9-.1a13.06,13.06,0,0,0-10.5-7.13c-3.43-.4-4.94-2.48-5.23-5.69a66.31,66.31,0,0,1-.4-6.89,5.46,5.46,0,0,0-2.84-5.3c-1.69-1-3.48-1.83-4.18-3.89-.27-.78-1-.86-1.7-1-4.79-.95-5.43-1.6-6-6.16-.16-1.21-.16-2.44-.28-4.31a10.42,10.42,0,0,0-4.88,5.52,8.87,8.87,0,0,1-10.92,5.08c-2.6-.74-3.74-2.46-3.21-5.18.41-2.09,1.1-4.12,1.58-6.19.61-2.62-.31-4.55-2.84-5.57s-5.26-2.13-8-3-5.41-1.83-6.56-4.87c-.63-1.68-1.87-1.82-3.45-1.45-5.73,1.33-11.4,2.83-16.52,5.8-2.18,1.27-4.14,1.68-6.53.68a18.31,18.31,0,0,0-4.17-.77c-2.92-.48-5.14.28-6.65,3.1-1.76,3.28-4,6.31-5.74,9.6a5.59,5.59,0,0,1-5.48,3.38c-2.13,0-4.27.23-6.4.19a23.31,23.31,0,0,0-14.87,4.77,26.68,26.68,0,0,1-16.45,5.35c-6.09,0-14.62-8.73-14.46-14.74a7.69,7.69,0,0,1,2.89-5.5q2.74-2.52,5.44-5.1a3.09,3.09,0,0,0,.3-4.7c-.89-1.11-1.64-2.33-2.58-3.39-2.79-3.16-4.73-6.57-4.43-11,.22-3.28-2-5.59-3.89-7.94-3.24-4-5-8.55-4.61-13.78.1-1.23,0-2.76.73-3.59,2.64-3.15,1.4-5.92-.48-8.65a19.06,19.06,0,0,1-3-13.72,14.46,14.46,0,0,1,5.77-10.38c4.42-3.28,8.58-6.91,12.86-10.37a12.29,12.29,0,0,1,10.38-3,11,11,0,0,0,8.6-1.78c2.51-1.74,5.69-2,8.69-2.16,2.29-.11,3.17-1.15,3.28-3.23,0-.53.13-1.06.16-1.59.42-8.12,4.12-13.84,12.12-16.28,4.51-1.38,6.91-4.4,8.19-8.83s3.31-8.17,7.32-10.78c4.4-2.87,7.17-2.73,10.77,1.09,1.89,2,3.16,4.71,6.65,5.68a32.81,32.81,0,0,1,6.67-13.18c1.56-1.87.75-4.47.8-6.75,0-1.5.17-3,1.64-3.66,1.63-.76,3.1-.11,4.34,1.11s2.47,2.41,3.69,3.59c1-.67.72-1.67,1.08-2.41,1.77-3.67,5.19-5,7.56-2,3.94,5,8.47,4,13.33,3.17a8.44,8.44,0,0,1,1.59-.1c8.41,0,11.24,4,8.43,11.95-.84,2.34-1.82,4.63-2.6,7-1.25,3.79-1,4.25,2.27,6.62a18.94,18.94,0,0,0,2.24,1.44A66.6,66.6,0,0,1,1989,781.61a17,17,0,0,0,2.54,1.65,69.57,69.57,0,0,0,5.64-17.1,6.26,6.26,0,0,0-.54-4.17c-3.28-5.92-2-12.07-1-18.21a16.07,16.07,0,0,1,1-4.12c1.52-3.18,1.07-5.2-2.22-7.18-2.87-1.73-4.49-5-5.79-8.15-.92-2.2-2.29-2.82-4.54-2.43a27.79,27.79,0,0,1-6.35.56c-4-.24-5.51-3.26-3.61-6.78C1975,714.15,1976.57,712.77,1980.26,710.37Z" transform="translate(641.71 1486.86)" style="fill:url(#Motivo_nuevo_2)"/><path d="M1813.76,646.57c1.76-5.5,5.26-8.34,10.41-9.4a6,6,0,0,0,4.75-3.85c2.52-6.78,7.48-10.11,14.45-9.87,1.29-1.18.49-2.23.44-3.22a11.75,11.75,0,0,1,7.4-11.19c3.27-1.13,5.5.17,6.16,3.72.39,2.09.51,4.23.88,6.32s1.16,3.37,3.6,2.47c1.56-.58,3.25-.79,4.3.87,1.19,1.9.64,3.85-.64,5.45a21.11,21.11,0,0,1-3.51,3.22c-4.62,3.62-4.63,3.6-2.1,9.1,1,2.09,1.92,4.2,2.81,6.32,2.38,5.72,1.19,10.76-3,15.21a21.94,21.94,0,0,1-2.24,2.28c-5,4-6,9.35-5.68,15.3.58,9.51-1.91,12.07-11.54,11.38-5.82-.41-11.42-2.53-17.37-2.36-1.7,0-3.33-1.13-4.79-2.18a31.8,31.8,0,0,1-10.93-12.83,55.44,55.44,0,0,1-5-21.64c-.14-7.9,2.88-9.73,9.69-6C1812.31,645.93,1812.8,646.12,1813.76,646.57Z" transform="translate(641.71 1486.86)" style="fill:url(#Motivo_nuevo_2)"/><path d="M1417.08,832.15c.48-3.8-.65-7.39-1.55-11-1.3-5.26-2.11-10.23,1.3-15.3,2.12-3.14,1.59-7.21.9-10.92a60.86,60.86,0,0,0-1.68-6.15c-2.27-7.63.54-14.42,8.17-16.45,8.57-2.29,12.47-8.79,16.6-15.38,1.41-2.25,2.35-4.78,3.63-7.1,1.44-2.62,3.51-4.56,6.71-4.5,3.45.06,5.55,2.26,6.82,5.16,3.37,7.68,4.55,15.77,2.51,23.92-3.17,12.72-6.29,25.48-11,37.77a109.83,109.83,0,0,0-3.61,12.78,58.75,58.75,0,0,1-4.5,13,14.19,14.19,0,0,1-17.63,7.15,9.89,9.89,0,0,1-6.71-9.31C1417,834.63,1417.08,833.39,1417.08,832.15Z" transform="translate(641.71 1486.86)" style="fill:url(#Motivo_nuevo_2)"/><path d="M1834.57,725.38c-5.57-.57-11-1.59-16.52-1.53-3.32,0-6-2-8.28-4.37a4.08,4.08,0,0,0-4.66-1.22,29.57,29.57,0,0,1-13.72.44c-3-.59-6-1.75-7-4.35-1.94-4.9-6.34-7.77-8.85-12.14s-6.38-7.16-10.19-10c-10.52-7.94-15.75-18.91-18.39-31.38a23.16,23.16,0,0,0-4.45-9,113.27,113.27,0,0,0-13-14.82,55.27,55.27,0,0,1-7.81-8.72c-1.41-2.09-2.83-4.31-1.25-6.86,1.75-2.81,4.61-2.37,7.22-1.84A21.8,21.8,0,0,1,1738,625c7.67,6.87,15.62,13.42,22,21.66a42.16,42.16,0,0,0,6.92,6.62c5.64,4.63,11.13,9.38,15.48,15.32a7.14,7.14,0,0,0,3.64,3c6.32,2,8.17,5.7,5.21,11.45-2.11,4.09-2.77,8.35-3.31,12.76-.26,2.07-.22,3.36,2.38,3.56,2.09.16,3.51,1.79,4.33,3.59,1.06,2.33,2.77,2.93,5.11,2.86a10.67,10.67,0,0,1,4.19.55c3.39,1.38,6.63,2.33,10,0,1.11-.78,2.37-.1,3.58.22,4.12,1.07,8.23,2.26,12.41,3,4.65.83,7.51,3.74,9.82,7.46,1.28,2,1.87,4.32.54,6.53S1836.57,725.33,1834.57,725.38Z" transform="translate(641.71 1486.86)" style="fill:url(#Motivo_nuevo_2)"/><path d="M1923.52,418.29a29.84,29.84,0,0,0,16.08-11.41c1.53-2.21,3.83-2.45,6.18-2.16,3,.38,6,1,8.93,1.47,2.48.37,4.69.36,6.87-1.65a31,31,0,0,1,11.57-6.4c2.86-.94,4.22-2.74,5.42-5.28,3-6.33,5.24-12.78,5.38-19.86a18.54,18.54,0,0,1,.88-5.76,4.12,4.12,0,0,0-.8-4.69c-2.46-3-1.93-5.72,1.07-8.3a7.86,7.86,0,0,1,2.21-1.46c3.88-1.52,5.83-4.33,7.3-8.28,2.35-6.3,7.66-7.28,12.64-2.68a8.79,8.79,0,0,0,6.53,2.7,17.11,17.11,0,0,1,9.54,2.94c2.88,1.89,4.61,4.48,4,8.06s-3.4,5.15-6.42,5.47c-6.73.71-13.07,3.33-19.84,3.65-1.58.08-3.22.17-4.57,1.5a111.48,111.48,0,0,0,4.57,12.33c2.41,5.74,2.19,6.77-2.49,10.86a4.25,4.25,0,0,0-1.41,3.25c-.27,3.36-.69,6.72-.65,10.08a7.47,7.47,0,0,1-4.29,7.34c-5,2.61-9.69,5.93-15.12,7.72-2.57.85-4.57,2-5.91,4.75-1.89,3.88-5,4.74-10.06,3.65-1.4-.3-2.52-1.09-3.59.7-3.13,5.19-7.57,5.91-12.81,3.39a5.06,5.06,0,0,0-1.19-.24c-.54,1.82-.93,3.72-1.65,5.48a8.88,8.88,0,0,1-7.65,5.8c-3.5.38-5.64-1.83-7.19-4.56-3.28-5.77-6-11.7-3.43-18.57Z" transform="translate(641.71 1486.86)" style="fill:url(#Motivo_nuevo_2)"/><path d="M1490.09,166.37a16.43,16.43,0,0,1-8.66-2.28,57.69,57.69,0,0,0-14.71-6c-5.16-1.41-6.46-4.15-4.56-9.15a13.44,13.44,0,0,1,6.64-7.3c5.19-2.7,10.23-5.69,15.46-8.31a33.37,33.37,0,0,0,10.9-8.33,13.87,13.87,0,0,1,9.52-5c8.25-1.06,16.43-2.79,24.63-4.25a19.57,19.57,0,0,1,8.41.16,30.1,30.1,0,0,0,10.07.47,10.48,10.48,0,0,0,7-3.14c3-3,8.1-3.43,11.83-1.44,3.58,1.91,4.52,5,2.23,8.36a34.3,34.3,0,0,1-11.47,10.91,13.23,13.23,0,0,1-9.16,1.58c-9.35-1.57-18.78-1.14-28.11.19-9,1.29-15.74,7-22.75,12.12-1.83,1.32-1.55,2.53.31,4.16,3.81,3.33,4.62,7.57,2.87,11.49S1495.13,166.45,1490.09,166.37Z" transform="translate(641.71 1486.86)" style="fill:url(#Motivo_nuevo_2)"/><path d="M2193.8,956.62c-.89,8.13-5.59,13.9-11.66,18.92A71,71,0,0,0,2168.78,990c-2.7,3.93-5.78,5.87-10.74,4.8-2.57-.55-5.32-.44-7.87-1.23-7.06-2.16-9.16-8.06-5.05-14.14a26.66,26.66,0,0,1,6.34-6.42c3.86-2.86,7.79-5.6,11.67-8.43,3.72-2.7,7.67-5.1,9.35-9.86.78-2.2,3-3.45,5-4.68a18.45,18.45,0,0,0,4.17-3.23c2.11-2.33,3.41-2.39,5.87-.24a40.93,40.93,0,0,1,4.18,4.91c1.88-1.9,2.16-3.65,2.65-5.37a48.21,48.21,0,0,1-6.62-1.68c-4.36-1.78-5.06-5.44-2-8.89,1.36-1.53,4-2.15,4-4.69,0-3.4-.32-6.8-2.15-9.76a20.66,20.66,0,0,1-3-7.91c-.49-3.34,1.06-5.95,3.79-6.81s5,0,6.61,3.07c1.8,3.45,3.15,7.14,4.69,10.71a10.82,10.82,0,0,0,4.76,5.53c1.32.72,2.52,1.32,4,.59,2.68-1.33,4.69-.77,6.24,1.9,2.22,3.83,2.67,7.2.09,9.27-4.41,3.54-6.28,8.48-8.55,13.28C2203.09,957.15,2200.84,958.27,2193.8,956.62Z" transform="translate(641.71 1486.86)" style="fill:url(#Motivo_nuevo_2)"/><path d="M1071.51,198.58c0,4.37-5.15,10.14-9.57,10.53a15.24,15.24,0,0,0-9,3.82c-4,3.45-9.18,4.55-14.24,5.42a6.94,6.94,0,0,1-7.65-3.75c-1.57-3.31-4-3.59-7-3.49s-6.09.82-8.31-2.13c-2.91-3.87-5.65-7.92-5.78-12.89-.12-4.23,4.64-8.37,8.89-8s8.56.86,12,3.74a4.62,4.62,0,0,0,4.43,1c6-1.52,12.18-1.66,18.23-3.42,6.22-1.82,12,1.53,16.88,5.77C1071.45,196.14,1071.53,197,1071.51,198.58Z" transform="translate(641.71 1486.86)" style="fill:url(#Motivo_nuevo_2)"/><path d="M1896.84,595.21c-4.68.94-9.24,0-13.8-.22-3.41-.14-5.11-2.11-5.17-5.52-.07-4.24.92-8.37,4.52-10.83,3.76-2.58,7,.09,10.37,2.48.76-3.22,1.15-6.39,3-9,2.28-3.2,4.74-3.83,8.2-1.93a9.8,9.8,0,0,1,4.87,10.35c-.81,3.75-4,6-8.82,6.11-1,0-2,0-3.43,0,1.44,2.49,1.54,5.23,5.69,5.13,2.61-.06,4.34,3.35,6.13,5.5,7.44,8.93,3.07,21.27-8.31,23.66-3.82.8-6,.22-7.42-3.24-1.6-4-4.39-5.15-8.22-5.21a26.08,26.08,0,0,1-4.76-.41c-3.52-.7-4.94-3.29-3.83-6.73,1.92-5.93,9.76-10,15.48-7.57C1894.56,599.11,1895.93,598.39,1896.84,595.21Z" transform="translate(641.71 1486.86)" style="fill:url(#Motivo_nuevo_2)"/><path d="M1881,554.34c5.78-.8,10.31,2.21,15.3,3.23,2.27.47,2.54,2.26,1.83,4.17-1.1,3-2.78,5.49-6.35,5.54-4.35.07-7.13,2.26-9.46,5.77a52.89,52.89,0,0,1-9,9.76,26,26,0,0,1-3.84,2.82,3.23,3.23,0,0,1-4-.1,3.49,3.49,0,0,1-1.2-3.82,19.36,19.36,0,0,1,4.7-8.22c2-2.23,4.12-4.36,6.16-6.52-1-2.4-3-3.64-4.6-5.26a30.21,30.21,0,0,1-5.55-7.08c-3-5.75-2.2-9.87,2.73-14.15a14.2,14.2,0,0,1,2.12-1.6c3-1.76,4.33-4.27,4.54-7.81.34-5.44,3.59-7,8.3-4.21s6.86,7.5,6.87,13c0,2.91-2.1,4.73-4.11,6.53C1882,549.52,1882,549.55,1881,554.34Z" transform="translate(641.71 1486.86)" style="fill:url(#Motivo_nuevo_2)"/><path d="M1881.17,664.17c1.77,0,3.55,0,5.32.08,4.23.27,6.87,2.41,7.18,5.73.28,3-1.8,5.69-5.47,6.93a29.17,29.17,0,0,1-3.08.62c5.89,5.39,7.33,12.23,7.86,19.36.33,4.39-.79,5.31-5.24,4.77A13.87,13.87,0,0,1,1876,690.81a42,42,0,0,1-.49-4.45c-2.31.41-3.47,2.35-5.13,3.48-3.51,2.39-5.9,2.69-8.26.86s-3.16-4.44-1.76-8.19a49.07,49.07,0,0,0,3.16-12.84c.24-2.69,1.15-5.22,3.86-6.57a3.39,3.39,0,0,1,2.74-.73,7.63,7.63,0,0,1,1.38.44C1874.52,664.81,1878,663.22,1881.17,664.17Z" transform="translate(641.71 1486.86)" style="fill:url(#Motivo_nuevo_2)"/><path d="M678.65,494.45a20,20,0,0,1,15,5.84c3.86,3.72,8.28,6.42,13.92,7.08,4.36.5,7.09,3.86,9.08,7.51,1.71,3.12.32,6-3.24,6.89a12.74,12.74,0,0,1-11.14-2c-4.52-3.4-9.69-5.92-13.7-10-2-2-4.58-1.83-7-1.86-4.78-.07-9.56.26-14.34.45-2,.08-3.89.24-5.74-.61a6,6,0,0,1-3.54-6c.11-2.46,1.82-3.24,3.78-3.78C667.15,496.51,672.31,493.82,678.65,494.45Z" transform="translate(641.71 1486.86)" style="fill:url(#Motivo_nuevo_2)"/><path d="M561.29,137.79c3.59,1.49,7.5.05,11.47-.77a19.79,19.79,0,0,1,3.69-.34c7.81-.15,13.26,6.09,12.13,13.85a5.07,5.07,0,0,1-1.25,2.87c-1.45,1.55-2.75,3.25-4.27,4.73-6.62,6.43-11.77,5.36-15.33-3.14-1.47-3.51-1.47-3.51-5.65-2.8-3.25.55-6.39.62-8.73-2.31-1.77-2.22-2.28-6.26-.93-8.53C554.32,138.18,557.47,137.8,561.29,137.79Z" transform="translate(641.71 1486.86)" style="fill:url(#Motivo_nuevo_2)"/><path d="M738.76,516.78c10.85,0,18,6.71,17.7,15.57a11.35,11.35,0,0,1-.66,3.61c-.95,2.49-3.16,3.63-5,2-2.48-2.27-4.42-1.08-6.65-.2-2.38.94-5.11,1.7-7.08-.07-3.88-3.49-8.61-3.7-13.28-4.42-2-.31-4.6.19-5.35-2.47-.64-2.29,1.49-3.39,2.77-4.76C726.32,520.58,731.83,516,738.76,516.78Z" transform="translate(641.71 1486.86)" style="fill:url(#Motivo_nuevo_2)"/><path d="M2025.75,973.33c-5.57.11-7.8-1.73-7.76-6.8,0-2.59-1.44-3.79-2.91-5.3-3-3.09-3.42-5.52-1.65-8.52,1.23-2.06,2.75-3.22,5.23-1.89.77.42,1.67.61,2.44,1,2.8,1.53,5.28,1.16,7.77-.85a24,24,0,0,1,5.43-3.28c4.41-1.89,7.42.46,6.7,5.27a33,33,0,0,1-1.85,6.63c-.93,2.47-2.15,4.84-3.23,7.26C2033.85,971.53,2030,973.16,2025.75,973.33Z" transform="translate(641.71 1486.86)" style="fill:url(#Motivo_nuevo_2)"/><path d="M1868.46,660.88a7,7,0,0,1-.44-6.59c1.43-3.24,2.53-3.95,6.12-3.28a26.48,26.48,0,0,0,12.57-.39,75.25,75.25,0,0,1,11.43-2.25c3.92-.52,5.55,1.56,4.61,5.39-1.13,4.62-3.59,6.92-8.24,7.64-1.92.29-3.85.53-5.78.79-1.41.84-3.13,0-4.54.79l-2.91.26c-3.64,1.51-7.26,1.89-10.84-.14l.1.07C1869.71,662.54,1868.73,662,1868.46,660.88Z" transform="translate(641.71 1486.86)" style="fill:url(#Motivo_nuevo_2)"/><path d="M1888.67,732.59a9,9,0,0,1,1.67-5.49c2.26-3.36,4.53-6.73,7.06-9.89,2.81-3.5,7.22-3.57,11.34-.48,6.21,4.65,5.62,10.93-1.5,13.81a34.89,34.89,0,0,0-7.73,4.4,15.93,15.93,0,0,1-4.64,2.46C1891.18,738.55,1888.64,736.48,1888.67,732.59Z" transform="translate(641.71 1486.86)" style="fill:url(#Motivo_nuevo_2)"/><path d="M1927.06,650.61a33.83,33.83,0,0,1-3.4,13.07,11.28,11.28,0,0,1-3.16,4.2c-3.79,2.86-7.64,1.41-8.85-3.21-.66-2.53,0-4.93.44-7.33a28.32,28.32,0,0,1,4.94-11.6c1.61-2.14,3.48-4.34,6.56-3.36s3.5,3.67,3.47,6.47Z" transform="translate(641.71 1486.86)" style="fill:url(#Motivo_nuevo_2)"/><path d="M1867,499.35a23.92,23.92,0,0,1,4.55-13.53,10.91,10.91,0,0,1,4.86-4c4.17-1.65,7.08,0,7.3,4.52.31,6.06-1.85,11.45-5.35,16.28-2.27,3.13-5.28,4.34-7.67,3.49S1866.86,502.61,1867,499.35Z" transform="translate(641.71 1486.86)" style="fill:url(#Motivo_nuevo_2)"/><path d="M164.37,293.3c-5,0-7.51-1.16-8.05-3.46s1.23-4.74,5.57-6.07c4-1.22,6.23-3.28,7-7.38a4.24,4.24,0,0,1,4.65-3.51,5,5,0,0,1,4.59,4.4,25.41,25.41,0,0,1-1.07,11c-.57,1.85-2.16,2.72-3.87,3.34A24,24,0,0,1,164.37,293.3Z" transform="translate(641.71 1486.86)" style="fill:url(#Motivo_nuevo_2)"/><path d="M2150.37,817c0,2.61-.77,4.88-3.14,6.34s-4.85.81-6.94-.71c-4.43-3.21-6.9-8-9.58-12.56a3.09,3.09,0,0,1,2.94-4.79c5.73.49,11.2,2,15,6.76A8,8,0,0,1,2150.37,817Z" transform="translate(641.71 1486.86)" style="fill:url(#Motivo_nuevo_2)"/><path d="M132.82,286.05c3.33-.47,7,1.68,10.61,3.37,2.63,1.22,2.68,3.66.46,5.53-4.85,4.09-16.62,4.48-21.71.72-3.31-2.45-3-6,.8-8C125.73,286.23,128.8,286.25,132.82,286.05Z" transform="translate(641.71 1486.86)" style="fill:url(#Motivo_nuevo_2)"/><path d="M2213.54,791.12c-1.54.09-3.37-.08-4.42-1.76s.23-3,1.1-4.3a48.61,48.61,0,0,1,7-8.6,18.51,18.51,0,0,1,3.77-2.85c2.11-1.11,4.38-1.57,6.36.32,1.8,1.72,1.5,3.76.73,5.87C2226.08,785.22,2218.86,791,2213.54,791.12Z" transform="translate(641.71 1486.86)" style="fill:url(#Motivo_nuevo_2)"/><path d="M1917.45,421.1c3.28-6.26,9.06-11.24,9.73-18.86.1-1.15,1-1.78,1.87-2.46s.71-1.33-.08-2.16c-4.46-4.65-7.22-10.37-9.88-16.13-1.56-3.36-.46-5.28,3.29-6.14,4.46-1,4.46-1,5-5.28.32-2.75,1.67-3.58,5.2-3.22-.61,6.59-3.76,11.15-10.78,12.42,1.39,4.13,3.65,7.05,5.57,10.14a23.22,23.22,0,0,1-1.6,26c-.75.94-2.06,1.44-2.21,2.85a1.07,1.07,0,0,1,.14-.16C1921.05,418,1920.06,421.25,1917.45,421.1Z" transform="translate(641.71 1486.86)" style="fill:url(#Motivo_nuevo_2)"/><path d="M774,532.91a7.12,7.12,0,0,1-6.19,7.39c-3.23.29-6.15-2.35-6.79-6.13,0-.18,0-.35,0-.53-.51-4.55,2-8.44,5.67-8.81S774,528.36,774,532.91Z" transform="translate(641.71 1486.86)" style="fill:url(#Motivo_nuevo_2)"/><path d="M707.73,539.76a6.85,6.85,0,0,1-6.29,7.18c-3.38.21-6.14-2.35-6.68-6.17,0-.18,0-.36,0-.53-.42-4.75,2-8.44,5.77-8.65C704.39,531.37,707.71,535.12,707.73,539.76Z" transform="translate(641.71 1486.86)" style="fill:url(#Motivo_nuevo_2)"/><path d="M1875.13,730.23a6.33,6.33,0,0,1-6.43,6.33,7,7,0,0,1-6.9-7.2,6.45,6.45,0,0,1,6.77-6.58C1872.45,722.83,1875.27,726,1875.13,730.23Z" transform="translate(641.71 1486.86)" style="fill:url(#Motivo_nuevo_2)"/><path d="M698.29,493.16c-3.56-.05-6.26-2.55-6.29-5.82s2.72-5.72,6.32-5.63c4,.11,7.26,3,7,6.4C705.15,491,702,493.21,698.29,493.16Z" transform="translate(641.71 1486.86)" style="fill:url(#Motivo_nuevo_2)"/><path d="M685.78,229.32c-3.53,0-6.67-2.61-6.7-5.54s3.25-5.36,6.85-5.26a5.41,5.41,0,1,1-.15,10.8Z" transform="translate(641.71 1486.86)" style="fill:url(#Motivo_nuevo_2)"/><path d="M1870.44,663.1c3.59,1.19,7.23-.29,10.84.14a2.45,2.45,0,0,0-.11.93C1877.37,666,1873.77,665.91,1870.44,663.1Z" transform="translate(641.71 1486.86)" style="fill:url(#Motivo_nuevo_2)"/><path d="M1868.46,660.88a3.22,3.22,0,0,1,2.08,2.29l-3.15-.07Z" transform="translate(641.71 1486.86)" style="fill:url(#Motivo_nuevo_2)"/><path d="M1884.19,663c1.35-1.19,2.93-1.07,4.54-.79A4.47,4.47,0,0,1,1884.19,663Z" transform="translate(641.71 1486.86)" style="fill:url(#Motivo_nuevo_2)"/><path d="M1181.67,378.4c0,3.4-2.17,5.59-5.67,5.62-3,0-5.16-1.75-5.15-4.18,0-2.61,3.58-6.56,6-6.67C1179.48,373.06,1181.64,375.4,1181.67,378.4Z" transform="translate(641.71 1486.86)" style="fill:url(#Motivo_nuevo_2)"/><path d="M1219.81,376.9c0,4.85-4.2,9.33-8.54,9.1-4.67-.24-7.92-4.67-7.3-9.92,0-.36.13-.7.2-1.05,1-5.17,4.59-8.63,8.32-8.14S1219.81,372.46,1219.81,376.9Z" transform="translate(641.71 1486.86)" style="fill:url(#Motivo_nuevo_2)"/><path d="M1253.72,389.47a4.49,4.49,0,0,1-1-3.48C1253.69,387,1253,388.42,1253.72,389.47Z" transform="translate(641.71 1486.86)" style="fill:url(#Motivo_nuevo_2)"/><path d="M1255.15,396.28c.27,3.14-.69,5.6-3.6,7s-6.07,1.84-8.48-.38c-3.13-2.88-6.72-5.12-9.86-7.93-1.76-1.58-3.29-3.43-2.23-6s3.32-3.11,5.7-2.95c5.75.39,11.76,0,16.39,4.51.27.26.55.14.73-.22-1.07,2.28-2.4.51-3.35-.06-4-2.36-8.46-2.48-12.85-2.87-1.94-.17-4.08.11-4.94,2.3s.81,3.32,2.08,4.5a89.89,89.89,0,0,0,8.18,6.8c4.71,3.45,9.22,1.53,10.69-4.22.36-1.42,0-3.41,2.35-3.5C1254,393.8,1255.05,395.26,1255.15,396.28Z" transform="translate(641.71 1486.86)" style="fill:url(#Motivo_nuevo_2)"/><path d="M1490.18,477.12c-.31.07-.62.14-.92.19a1.67,1.67,0,0,1,.86-.24Z" transform="translate(641.71 1486.86)" style="fill:url(#Motivo_nuevo_2)"/><path d="M1255.15,396.28c.27,3.14-.69,5.6-3.6,7s-6.07,1.84-8.48-.38c-3.13-2.88-6.72-5.12-9.86-7.93-1.76-1.58-3.29-3.43-2.23-6s3.32-3.11,5.7-2.95c5.75.39,11.76,0,16.39,4.51.27.26.55.14.73-.22a.54.54,0,0,0,0-.11c1.17.69,1.45,2,2.11,3.06C1254,393.8,1255.05,395.26,1255.15,396.28Z" transform="translate(641.71 1486.86)" style="fill:url(#Motivo_nuevo_2)"/><path d="M1253.72,389.47a4.49,4.49,0,0,1-1-3.48C1254.11,386.84,1253.8,388.19,1253.72,389.47Z" transform="translate(641.71 1486.86)" style="fill:url(#Motivo_nuevo_2)"/><path d="M1219.81,376.9c0,4.85-4.2,9.33-8.54,9.1-4.67-.24-7.92-4.67-7.3-9.92,0-.36.13-.7.2-1.05,1-5.17,4.59-8.63,8.32-8.14S1219.81,372.46,1219.81,376.9Z" transform="translate(641.71 1486.86)" style="fill:url(#Motivo_nuevo_2)"/><path d="M1181.67,378.4c0,3.4-2.17,5.59-5.67,5.62-3,0-5.16-1.75-5.15-4.18,0-2.61,3.58-6.56,6-6.67C1179.48,373.06,1181.64,375.4,1181.67,378.4Z" transform="translate(641.71 1486.86)" style="fill:url(#Motivo_nuevo_2)"/></svg>