<svg id="Capa_1" data-name="Capa 1" xmlns="http://www.w3.org/2000/svg" xmlns:xlink="http://www.w3.org/1999/xlink" viewBox="0 0 175 156.18"><defs><pattern id="Motivo_nuevo_2" data-name="Motivo nuevo 2" width="14" height="14.05" patternUnits="userSpaceOnUse" viewBox="0 0 14 14.05"><rect width="14" height="14.05" style="fill:none"/><polygon points="5.42 14.68 5.26 14.68 5.86 13.97 6.57 13.97 6.44 14.13 5.88 14.13 5.42 14.68" style="fill:#2598dd"/><path d="M18.19,14H17l-.13.16h1.16Zm-2.33,0H14.7l-.13.16h1.17Zm-2.32,0H12.38l-.13.16h1.16Zm-2.33,0H10.05l-.13.16h1.17ZM8.89,14H7.73l-.13.16H8.76Z" style="fill:#2598dd"/><path d="M4.19,14H3l-.13.16H4.06ZM1.86,14H.7l-.13.16H1.74ZM-.46,14H-1.62l-.13.16H-.59Zm-2.33,0H-3.95l-.13.16h1.17Zm-2.32,0H-6.27l-.13.16h1.16Z" style="fill:#2598dd"/><path d="M20.4,14H19.24l-.13.16h1.16Zm-2.33,0H16.91l-.13.16H18Zm-2.32,0H14.59l-.13.16h1.16Zm-2.33,0H12.26l-.12.16H13.3ZM11.1,14H9.94l-.13.16H11Z" style="fill:#2598dd"/><path d="M10.64,11.09h-.16l-1,1.17h.15Zm1.95-2.32h-.15l-1,1.16h.15Zm1.95-2.33h-.15l-1,1.17h.15Zm1.95-2.32h-.15l-1,1.16h.15Zm2-2.33h-.15L17.31,3h.15Z" style="fill:#2598dd"/><polygon points="8.14 14.13 7.43 14.13 7.56 13.97 8.12 13.97 8.58 13.42 8.74 13.42 8.14 14.13" style="fill:#2598dd"/><path d="M6.4,14H5.24l-.13.16H6.27ZM4.07,14H2.91l-.13.16H4ZM1.75,14H.59l-.13.16H1.62ZM-.58,14H-1.74l-.12.16H-.7ZM-2.9,14H-4.06l-.13.16H-3Z" style="fill:#2598dd"/><path d="M-3.36,11.09h-.16l-1,1.17h.15Zm2-2.32h-.15l-1,1.16h.15Zm2-2.33H.39l-1,1.17h.15Zm2-2.32H2.34l-1,1.16h.15Zm2-2.33H4.29L3.31,3h.15Z" style="fill:#2598dd"/><polygon points="5.42 0.63 5.26 0.63 5.86 -0.08 6.57 -0.08 6.44 0.08 5.88 0.08 5.42 0.63" style="fill:#2598dd"/><path d="M18.19-.08H17L16.9.08h1.16Zm-2.33,0H14.7l-.13.16h1.17Zm-2.32,0H12.38l-.13.16h1.16Zm-2.33,0H10.05L9.92.08h1.17Zm-2.32,0H7.73L7.6.08H8.76Z" style="fill:#2598dd"/><path d="M10.69,11.09h-.15l-1,1.17h.15Zm2-2.32h-.15l-1,1.16h.15Zm1.95-2.33h-.15l-1,1.17h.15Zm1.95-2.32h-.15l-1,1.16h.15Zm1.95-2.33h-.15L17.36,3h.15Z" style="fill:#2598dd"/><path d="M4.19-.08H3L2.9.08H4.06Zm-2.33,0H.7L.57.08H1.74Zm-2.32,0H-1.62l-.13.16H-.59Zm-2.33,0H-3.95l-.13.16h1.17Zm-2.32,0H-6.27L-6.4.08h1.16Z" style="fill:#2598dd"/><path d="M-3.31,11.09h-.15l-1,1.17h.15Zm2-2.32h-.15l-1,1.16h.15Zm2-2.33H.44l-1,1.17h.15Zm2-2.32H2.39l-1,1.16h.15Zm2-2.33H4.34L3.36,3h.15Z" style="fill:#2598dd"/><path d="M20.4-.08H19.24l-.13.16h1.16Zm-2.33,0H16.91l-.13.16H18Zm-2.32,0H14.59l-.13.16h1.16Zm-2.33,0H12.26l-.12.16H13.3Zm-2.32,0H9.94L9.81.08H11Z" style="fill:#2598dd"/><polygon points="8.14 0.08 7.43 0.08 7.56 -0.08 8.12 -0.08 8.58 -0.63 8.74 -0.63 8.14 0.08" style="fill:#2598dd"/><path d="M6.4-.08H5.24L5.11.08H6.27Zm-2.33,0H2.91L2.78.08H4Zm-2.32,0H.59L.46.08H1.62Zm-2.33,0H-1.74l-.12.16H-.7Zm-2.32,0H-4.06l-.13.16H-3Z" style="fill:#2598dd"/></pattern></defs><g id="Capa_2" data-name="Capa 2" style="opacity:0.5"><g id="Capa_1-2" data-name="Capa 1-2"><path d="M44.94,30.78A65.12,65.12,0,0,0,27.12,58.66,64.57,64.57,0,0,0,40.67,81.38c1.14-3.2,3.21-7.27,7.22-9.54,7.32-4.14,14,1.64,28.46,3.63a70.17,70.17,0,0,0,33.83-3.86A63.63,63.63,0,0,0,131.49,58a61.7,61.7,0,0,0,10.9-14.39c-2-3-17.17-25.88-46.85-29.28C92.52,14,66.13,11.41,44.94,30.78ZM116.86,28a4.66,4.66,0,1,1-4.65,4.66h0A4.65,4.65,0,0,1,116.86,28Z" style="fill:url(#Motivo_nuevo_2)"/><path d="M40.59,25.72A68.4,68.4,0,0,1,75.08,12.91a64.68,64.68,0,0,1,31.42,1.27c-2-1.55-30.24-22.5-64.26-10.48C11,14.75,1.12,44.35.08,47.65a10,10,0,0,0,6.1,10.58,10,10,0,0,0,12.48-5.39A68.31,68.31,0,0,1,40.59,25.72Z" style="fill:url(#Motivo_nuevo_2)"/><path d="M56.08,91.78a24.48,24.48,0,0,0,14.13-15l-9.72-3.29A24.43,24.43,0,0,1,56.08,91.78Z" style="fill:url(#Motivo_nuevo_2)"/><path d="M173.41,95.91a65.32,65.32,0,0,0-25.62-38.16C139.9,82.67,118.4,100.6,93.3,103.33,65,106.41,37.26,89.59,26.16,62c-2.93,9.74-4.72,39.15,13.07,61.86C68.3,161,117.56,165.79,167.69,140A65.2,65.2,0,0,0,173.41,95.91Z" style="fill:url(#Motivo_nuevo_2)"/></g></g><path d="M97.15,92.17H19.07c2.89-9,6.69-22.57,7.76-34.85,1.63-18.82,31-19.16,31.27-19.16s29.65.34,31.28,19.16C90.45,69.6,94.25,83.2,97.15,92.17Z" style="fill:#0271a8"/><rect x="46.26" y="78.35" width="23.68" height="17.6" style="fill:#dbad7f"/><path d="M71.47,97.48H44.74V76.83H71.47ZM47.79,94.42H68.42V79.88H47.79Z" style="fill:#17202a"/><path d="M35.7,24H80.51a5.85,5.85,0,0,1,5.85,5.85v26A28.25,28.25,0,0,1,58.11,84.16h0A28.25,28.25,0,0,1,29.85,55.91v-26A5.85,5.85,0,0,1,35.7,24Z" style="fill:#edbf8e"/><path d="M58.11,85.69A29.82,29.82,0,0,1,28.32,55.91V22.52H87.89V55.91A29.81,29.81,0,0,1,58.11,85.69ZM31.38,25.57V55.91a26.73,26.73,0,0,0,53.45,0V25.57Z" style="fill:#17202a"/><path d="M17.35,99.8h4.13a0,0,0,0,1,0,0v54.85a0,0,0,0,1,0,0H9.23a7.7,7.7,0,0,1-7.7-7.7V115.63A15.83,15.83,0,0,1,17.35,99.8Z" style="fill:#008add"/><path d="M23,156.18H7.2A7.21,7.21,0,0,1,0,149v-32.5A18.23,18.23,0,0,1,18.21,98.27H23Zm-4.8-54.85A15.17,15.17,0,0,0,3.05,116.48V149a4.15,4.15,0,0,0,4.15,4.15H20v-51.8Z" style="fill:#17202a"/><path d="M97.61,99.8h17.08a0,0,0,0,1,0,0v54.85a0,0,0,0,1,0,0h-4.92a18.88,18.88,0,0,1-18.88-18.88V106.53a6.73,6.73,0,0,1,6.73-6.73Z" transform="translate(205.57 254.45) rotate(-180)" style="fill:#008add"/><path d="M109,156.18H89.36V98.27H98a18.23,18.23,0,0,1,18.21,18.21V149A7.21,7.21,0,0,1,109,156.18Zm-16.6-3.05H109a4.15,4.15,0,0,0,4.15-4.15v-32.5A15.17,15.17,0,0,0,98,101.33H92.41Z" style="fill:#17202a"/><rect x="9.18" y="146.85" width="97.86" height="7.8" rx="3.09" style="fill:#dcdcdc"/><path d="M103.13,156.18h-90a5.43,5.43,0,1,1,0-10.86h90.05a5.43,5.43,0,0,1,0,10.86Zm-90-7.8a2.38,2.38,0,1,0,0,4.75h90.05a2.38,2.38,0,1,0,0-4.75Z" style="fill:#17202a"/><path d="M52.65,50.53C52.2,55.2,50,57.41,45.43,58c-.31,0-.61.07-.92.09s-.58,0-.87,0h-.12l-.77,0h-.11q-.44,0-.87-.09c-.36-.05-.72-.11-1.08-.19a8.62,8.62,0,0,1-6.45-9.75c.17-1.1,1-1.48,1.91-1.82a18.7,18.7,0,0,1,6.52-.88h.17a17.57,17.57,0,0,1,7.71,1.42C52.53,47.74,52.85,48.35,52.65,50.53Z" style="fill:#eee"/><path d="M42.75,58.12h0Zm1.76,0q-.43,0-.87,0Q44.08,58.15,44.51,58.12Zm-1.87,0q-.44,0-.87-.09Q42.21,58.08,42.64,58.11Zm1,0h0Zm-.08,0c-.26,0-.52,0-.77,0ZM41.77,58c-.36-.05-.72-.11-1.08-.19C41.05,57.91,41.41,58,41.77,58Z" style="fill:#17202a"/><path d="M82.08,49.24l0,.52c0,.35-.07.68-.12,1s-.12.64-.2.94h0a8.34,8.34,0,0,1-.26.89l-.15.42a7.28,7.28,0,0,1-.37.8,7.67,7.67,0,0,1-.66,1.07c-.17.23-.34.44-.52.64a7.38,7.38,0,0,1-1.94,1.52,6.53,6.53,0,0,1-.75.37,10.35,10.35,0,0,1-4.06.76,14.59,14.59,0,0,1-1.59-.08c-5.22-.58-7.38-2.84-7.84-8.07A2.72,2.72,0,0,1,65,47.18a14,14,0,0,1,5.8-1.68,9.76,9.76,0,0,1,1.08,0l1.84,0,1.21,0a14.52,14.52,0,0,1,5.06.75C81.83,46.87,82.16,47.38,82.08,49.24Z" style="fill:#eee"/><path d="M44.51,58.12q-.43,0-.87,0Q44.08,58.15,44.51,58.12Zm-1.87,0q-.44,0-.87-.09Q42.21,58.08,42.64,58.11Zm1,0h0Zm-.85,0h0Zm.77,0c-.26,0-.52,0-.77,0ZM41.77,58c-.36-.05-.72-.11-1.08-.19C41.05,57.91,41.41,58,41.77,58Z" style="fill:#17202a"/><path d="M81,43.55a17.16,17.16,0,0,0-6-.92c-.38,0-.79,0-1.26,0l-.8,0h-1c-.51,0-.94,0-1.35.05a16.63,16.63,0,0,0-7,2.06,6.07,6.07,0,0,0-1.5,1.21l0,0a10.77,10.77,0,0,1-3.84.71A14.28,14.28,0,0,1,54.31,46a7.86,7.86,0,0,0-2.54-1.75,20.52,20.52,0,0,0-8.93-1.69h-.2a20.87,20.87,0,0,0-7.51,1.07,5.15,5.15,0,0,0-3.69,4,11.45,11.45,0,0,0,1.77,8.18,11.18,11.18,0,0,0,6.86,4.79A15.91,15.91,0,0,0,43.6,61a16.61,16.61,0,0,0,2.21-.14c5.93-.79,9.09-4.07,9.66-10a11,11,0,0,0,0-1.6,15.27,15.27,0,0,0,2.74.26,13.34,13.34,0,0,0,2.5-.24,6.18,6.18,0,0,0,0,1.05c.58,6.64,3.77,9.92,10.35,10.64A17.88,17.88,0,0,0,73,61a11.75,11.75,0,0,0,8.45-3.17,12.41,12.41,0,0,0,3.44-8.48C85.05,46.26,84,44.63,81,43.55Zm-28.35,7C52.2,55.2,50,57.41,45.43,58c-.31,0-.61.07-.92.09a13.21,13.21,0,0,1-2.74-.1c-.36-.05-.72-.11-1.08-.19a8.62,8.62,0,0,1-6.45-9.75c.17-1.1,1-1.48,1.91-1.82a18.7,18.7,0,0,1,6.52-.88h.17a17.57,17.57,0,0,1,7.71,1.42C52.53,47.74,52.85,48.35,52.65,50.53Zm29.43-1.29,0,.52c0,.35-.07.68-.12,1s-.12.64-.2.94h0a8.34,8.34,0,0,1-.26.89l-.15.42a8.25,8.25,0,0,1-.37.8,7.67,7.67,0,0,1-.66,1.07c-.17.23-.34.44-.52.64a7.38,7.38,0,0,1-1.94,1.52,6.53,6.53,0,0,1-.75.37,10.35,10.35,0,0,1-4.06.76,14.59,14.59,0,0,1-1.59-.08c-5.22-.58-7.38-2.84-7.84-8.07A2.72,2.72,0,0,1,65,47.18a14,14,0,0,1,5.8-1.68,9.76,9.76,0,0,1,1.08,0l1.84,0,1.21,0a14.52,14.52,0,0,1,5.06.75C81.83,46.87,82.16,47.38,82.08,49.24Z" style="fill:#17202a"/><path d="M93.09,47.1c0-24.93-8.31-45.57-35-45.57s-35,20.64-35,45.57-7.18,51.83-7.18,51.83,9-22.92,10.69-42.56S58.11,36.63,58.11,36.63s29.76.1,31.47,19.74,10.69,42.56,10.69,42.56S93.09,72,93.09,47.1Z" style="fill:#008add"/><path d="M101.74,98.53c0-.07-.56-2.13-1.34-5.6-.11-.48-.22-1-.34-1.53s-.22-1-.33-1.52C97.62,80,94.61,63.05,94.61,47.1a88.69,88.69,0,0,0-1.07-14.37C90,11.25,78,0,58.11,0S26.18,11.25,22.67,32.73A88.69,88.69,0,0,0,21.6,47.1c0,15.95-3,32.87-5.12,42.78-.11.53-.22,1-.33,1.52s-.23,1-.34,1.53c-.78,3.47-1.32,5.53-1.34,5.6a1.39,1.39,0,0,0-.06.4,1.53,1.53,0,0,0,2.95.55s.09-.21.22-.55c.36-1,1.14-3.07,2.13-6,.16-.48.34-1,.51-1.53l.5-1.52c2.77-8.59,6.41-21.61,7.43-33.38,1.57-18,29.68-18.34,30-18.34s28.39.33,30,18.34c1,11.77,4.66,24.79,7.43,33.38L96,91.4c.18.53.35,1,.51,1.53,1,2.93,1.77,5,2.13,6,.13.34.21.53.22.55a1.53,1.53,0,0,0,1.42,1,1.61,1.61,0,0,0,.48-.08,1.53,1.53,0,0,0,1-1.45A1.39,1.39,0,0,0,101.74,98.53ZM91.1,56.24c-.76-8.69-6.78-15.11-17.43-18.56A57,57,0,0,0,58.1,35.1a57,57,0,0,0-15.56,2.58C31.9,41.13,25.87,47.55,25.11,56.24a112.71,112.71,0,0,1-2,13.14A178.26,178.26,0,0,0,24.65,47.1a86.61,86.61,0,0,1,1.09-14.37C29.05,13,39.9,3.05,58.11,3.05S87.16,13,90.47,32.73A86.61,86.61,0,0,1,91.56,47.1a178,178,0,0,0,1.56,22.28A112.39,112.39,0,0,1,91.1,56.24Z" style="fill:#17202a"/><path d="M97.66,146.85H18.55a2.84,2.84,0,0,1-2.84-2.61L11.4,94.51a2.86,2.86,0,0,1,2.85-3.11H102a2.86,2.86,0,0,1,2.85,3.11l-4.3,49.73A2.86,2.86,0,0,1,97.66,146.85Z" style="fill:#eee"/><path d="M96,91.4H20.22c-.17.53-.35,1-.51,1.53H96.5C96.34,92.45,96.17,91.93,96,91.4Zm9.21-.1A4.41,4.41,0,0,0,102,89.88H14.25a4.63,4.63,0,0,0-1.34.2A4.45,4.45,0,0,0,11,91.3a4.33,4.33,0,0,0-1.14,3.34l4.3,49.73a4.36,4.36,0,0,0,4.37,4H97.66a4.36,4.36,0,0,0,4.37-4L106,98.93l.37-4.29A4.41,4.41,0,0,0,105.2,91.3Zm-7.54,54H18.55a1.32,1.32,0,0,1-1.32-1.21L13.31,98.93l-.39-4.55a1.35,1.35,0,0,1,.34-1,1.33,1.33,0,0,1,1-.43H102a1.33,1.33,0,0,1,1,.43,1.35,1.35,0,0,1,.34,1l-.39,4.55L99,144.11A1.32,1.32,0,0,1,97.66,145.32Z" style="fill:#17202a"/><path d="M49.37,109.41a13.41,13.41,0,0,0-3.66,5.73,13.24,13.24,0,0,0,2.78,4.66,3.57,3.57,0,0,1,1.48-2c1.51-.85,2.88.34,5.85.75a14.33,14.33,0,0,0,6.94-.79,13.07,13.07,0,0,0,4.38-2.8,12.59,12.59,0,0,0,2.23-3,13.17,13.17,0,0,0-20-2.64Zm13.81.39a1,1,0,1,1,.95,1,1,1,0,0,1-.95-1Z" style="fill:#2598dd"/><path d="M48.48,108.38a14,14,0,0,1,7.08-2.63A13.18,13.18,0,0,1,62,106c-.41-.32-6.21-4.62-13.2-2.16a14.57,14.57,0,0,0-8.65,9,2,2,0,0,0,1.25,2.17A2.06,2.06,0,0,0,44,113.94,14,14,0,0,1,48.48,108.38Z" style="fill:#2598dd"/><path d="M54.56,118.85l-2-.67a5,5,0,0,1-.91,3.76A5,5,0,0,0,54.56,118.85Z" style="fill:#2598dd"/><path d="M75.74,122.79A13.4,13.4,0,0,0,70.48,115a13.17,13.17,0,0,1-25,.88,15.64,15.64,0,0,0,2.69,12.7c6,7.62,16.08,8.6,26.37,3.3A13.38,13.38,0,0,0,75.74,122.79Z" style="fill:#2598dd"/><path d="M127,152.78a6.24,6.24,0,0,0,.26-1.38,22.88,22.88,0,0,1,2.61-8,21.46,21.46,0,0,0,1.53-3.12,3.88,3.88,0,0,0,.3-2.38l-.58.21a39.76,39.76,0,0,0-5.69,2,17.94,17.94,0,0,1-4,1.34c-.43.12-.75.06-.66-.43a28,28,0,0,1,.55-3.65c1.72-5.46,3.86-10.73,7.49-15.23a4.44,4.44,0,0,0,1-3.48c-.43-3.94-.69-7.9-1.23-11.82a56.18,56.18,0,0,1-.91-7.55,53,53,0,0,1,5.86-24.13,21.86,21.86,0,0,1,8.18-9.09A2.89,2.89,0,0,0,143,64.34,19,19,0,0,1,146.59,58a10,10,0,0,1,2.91-2.59,4.2,4.2,0,0,1,6.12,2.27,8.93,8.93,0,0,1,.38,3.94c-.16,1.67-.36,3.33-.52,5a8.15,8.15,0,0,0,.14,3.3,47.48,47.48,0,0,1,1.15,5c.62,3.1,1.18,6.2.43,9.37-.07.32-.12.74.24.94a19.18,19.18,0,0,1,3,2.79,23.41,23.41,0,0,1,6.92,11.16,12.63,12.63,0,0,1,.27,7,3.31,3.31,0,0,1-2.44,2.62,3.13,3.13,0,0,1-3.19-1.24c-.13-.15-.27-.3-.39-.45-.93-1.13-1.85-2.26-3-3.44l-.13-.13a1.09,1.09,0,0,1,0,.18c.05.68.05,1.21.14,1.74a20,20,0,0,1-.71,8.84c-.64,2.23-1.54,4.38-2,6.64a2.63,2.63,0,0,1-.74,1.34c1.39-3.88,1.41-7.92,1.42-12a58.65,58.65,0,0,0-1.26-12c3.58,1.1,4.41,1.61,6.68,4.24.84,1,1.61,2,2.39,3,.32.43.56.37.82,0a3.54,3.54,0,0,0,.49-2.35,21.09,21.09,0,0,0-7.34-14.06c-.86-.77-1.8-1.44-2.65-2.23a2.82,2.82,0,0,1-.83-3.16,8.94,8.94,0,0,0,.34-2.62,21.31,21.31,0,0,0-.74-5.4c-1-3.74-1.82-7.48-1.2-11.38.13-.8.21-1.61.29-2.42a8,8,0,0,0-.14-3.16,1.59,1.59,0,0,0-2.54-1,4.05,4.05,0,0,0-1,.95c-1.71,2.23-3.43,4.44-4.2,7.23a2.35,2.35,0,0,1-.89,1.4c-1,.66-1.89,1.34-2.85,2a11.77,11.77,0,0,0-3,2.93,41.56,41.56,0,0,0-7.26,17.22,39.37,39.37,0,0,0-.45,13.39c.78,5,1.2,10,1.8,15a7.23,7.23,0,0,1-2.2,6.41,18.76,18.76,0,0,0-3.9,5.26c-1.12,2.39-2.21,4.79-3.29,7.19a7.24,7.24,0,0,0-.4,1.19c-.06.2-.16.48,0,.63s.4-.09.57-.19a34.59,34.59,0,0,1,5-2.57A36.9,36.9,0,0,1,134,134.4c.4-.09.94-.1,1,.45a11,11,0,0,1-.35,5.48,25.87,25.87,0,0,1-3.17,6.49,28.27,28.27,0,0,0-4.2,8.66,1.15,1.15,0,0,1-.39.7l-.08-.13A7.11,7.11,0,0,1,127,152.78Z" style="fill:#008add"/><path d="M146.28,72.42c.51-.14.65-.07.55.4a12.87,12.87,0,0,0,0,4.91c-1.21-.16-2.33-1-2.41-1.8C144.23,74.27,144.6,72.9,146.28,72.42Z" style="fill:#008add"/><circle cx="150.82" cy="24.18" r="24.18" style="fill:#fede00"/><path d="M170.09,28.82a4.55,4.55,0,0,1-.7,4.46,8,8,0,0,1-6.06,3.65,6.25,6.25,0,0,1-2.5-.36c-.24-.08-.26-.18-.18-.4.31-.87.61-1.74.89-2.62.08-.24.16-.29.41-.21a3.84,3.84,0,0,0,4.65-1.81,1.65,1.65,0,0,0-1.68-2.48,14.8,14.8,0,0,0-2.85.76,10.12,10.12,0,0,1-3.18.6,4.88,4.88,0,0,1-4.46-2.94,4.48,4.48,0,0,1,.68-5,6.42,6.42,0,0,1,1.13-1.14,5.26,5.26,0,0,1,5.24-1.08c.24.07.28.16.2.38-.26.86-.52,1.72-.75,2.59-.07.27-.16.32-.43.23a2.31,2.31,0,0,0-2.74.78,1.42,1.42,0,0,0-.23,1.58,1.57,1.57,0,0,0,1.36,1,4.4,4.4,0,0,0,1.61-.27,28.08,28.08,0,0,1,4-1.06A5.11,5.11,0,0,1,170.09,28.82Z"/><path d="M154.15,32.05l3.75,4.32a7,7,0,0,1,1.17,1.78,4.22,4.22,0,0,1-.21,4.21,6.71,6.71,0,0,1-4.13,3.12,5.45,5.45,0,0,1-3.31-.28c-.2-.07-.21-.17-.15-.35.3-.91.6-1.83.88-2.74.07-.23.15-.27.36-.18a5.94,5.94,0,0,0,.72.21,2.16,2.16,0,0,0,2.47-1,1.52,1.52,0,0,0-.06-1.81,7.36,7.36,0,0,0-.63-.84c-2.54-2.92-5.07-5.84-7.62-8.76-.2-.23-.2-.34,0-.54.74-.62,1.47-1.25,2.18-1.89.21-.2.32-.17.49,0C151.44,28.94,152.8,30.49,154.15,32.05Z"/></svg>