<svg id="Capa_1" data-name="Capa 1" xmlns="http://www.w3.org/2000/svg" xmlns:xlink="http://www.w3.org/1999/xlink" viewBox="0 0 175 156.18"><defs><pattern id="Motivo_nuevo_2" data-name="Motivo nuevo 2" width="14" height="14.05" patternUnits="userSpaceOnUse" viewBox="0 0 14 14.05"><rect width="14" height="14.05" style="fill:none"/><polygon points="5.42 14.68 5.26 14.68 5.86 13.97 6.57 13.97 6.44 14.13 5.88 14.13 5.42 14.68" style="fill:#2598dd"/><path d="M18.19,14H17l-.13.16h1.16Zm-2.33,0H14.7l-.13.16h1.17Zm-2.32,0H12.38l-.13.16h1.16Zm-2.33,0H10.05l-.13.16h1.17ZM8.89,14H7.73l-.13.16H8.76Z" style="fill:#2598dd"/><path d="M4.19,14H3l-.13.16H4.06ZM1.86,14H.7l-.13.16H1.74ZM-.46,14H-1.62l-.13.16H-.59Zm-2.33,0H-3.95l-.13.16h1.17Zm-2.32,0H-6.27l-.13.16h1.16Z" style="fill:#2598dd"/><path d="M20.4,14H19.24l-.13.16h1.16Zm-2.33,0H16.91l-.13.16H18Zm-2.32,0H14.59l-.13.16h1.16Zm-2.33,0H12.26l-.12.16H13.3ZM11.1,14H9.94l-.13.16H11Z" style="fill:#2598dd"/><path d="M10.64,11.09h-.16l-1,1.17h.15Zm1.95-2.32h-.15l-1,1.16h.15Zm1.95-2.33h-.15l-1,1.17h.15Zm1.95-2.32h-.15l-1,1.16h.15Zm2-2.33h-.15L17.31,3h.15Z" style="fill:#2598dd"/><polygon points="8.14 14.13 7.43 14.13 7.56 13.97 8.12 13.97 8.58 13.42 8.74 13.42 8.14 14.13" style="fill:#2598dd"/><path d="M6.4,14H5.24l-.13.16H6.27ZM4.07,14H2.91l-.13.16H4ZM1.75,14H.59l-.13.16H1.62ZM-.58,14H-1.74l-.12.16H-.7ZM-2.9,14H-4.06l-.13.16H-3Z" style="fill:#2598dd"/><path d="M-3.36,11.09h-.16l-1,1.17h.15Zm2-2.32h-.15l-1,1.16h.15Zm2-2.33H.39l-1,1.17h.15Zm2-2.32H2.34l-1,1.16h.15Zm2-2.33H4.29L3.31,3h.15Z" style="fill:#2598dd"/><polygon points="5.42 0.63 5.26 0.63 5.86 -0.08 6.57 -0.08 6.44 0.08 5.88 0.08 5.42 0.63" style="fill:#2598dd"/><path d="M18.19-.08H17L16.9.08h1.16Zm-2.33,0H14.7l-.13.16h1.17Zm-2.32,0H12.38l-.13.16h1.16Zm-2.33,0H10.05L9.92.08h1.17Zm-2.32,0H7.73L7.6.08H8.76Z" style="fill:#2598dd"/><path d="M10.69,11.09h-.15l-1,1.17h.15Zm2-2.32h-.15l-1,1.16h.15Zm1.95-2.33h-.15l-1,1.17h.15Zm1.95-2.32h-.15l-1,1.16h.15Zm1.95-2.33h-.15L17.36,3h.15Z" style="fill:#2598dd"/><path d="M4.19-.08H3L2.9.08H4.06Zm-2.33,0H.7L.57.08H1.74Zm-2.32,0H-1.62l-.13.16H-.59Zm-2.33,0H-3.95l-.13.16h1.17Zm-2.32,0H-6.27L-6.4.08h1.16Z" style="fill:#2598dd"/><path d="M-3.31,11.09h-.15l-1,1.17h.15Zm2-2.32h-.15l-1,1.16h.15Zm2-2.33H.44l-1,1.17h.15Zm2-2.32H2.39l-1,1.16h.15Zm2-2.33H4.34L3.36,3h.15Z" style="fill:#2598dd"/><path d="M20.4-.08H19.24l-.13.16h1.16Zm-2.33,0H16.91l-.13.16H18Zm-2.32,0H14.59l-.13.16h1.16Zm-2.33,0H12.26l-.12.16H13.3Zm-2.32,0H9.94L9.81.08H11Z" style="fill:#2598dd"/><polygon points="8.14 0.08 7.43 0.08 7.56 -0.08 8.12 -0.08 8.58 -0.63 8.74 -0.63 8.14 0.08" style="fill:#2598dd"/><path d="M6.4-.08H5.24L5.11.08H6.27Zm-2.33,0H2.91L2.78.08H4Zm-2.32,0H.59L.46.08H1.62Zm-2.33,0H-1.74l-.12.16H-.7Zm-2.32,0H-4.06l-.13.16H-3Z" style="fill:#2598dd"/></pattern></defs><g id="Capa_2" data-name="Capa 2" style="opacity:0.5"><g id="Capa_1-2" data-name="Capa 1-2"><path d="M44.94,30.78A65.12,65.12,0,0,0,27.12,58.66,64.57,64.57,0,0,0,40.67,81.38c1.14-3.2,3.21-7.27,7.22-9.54,7.32-4.14,14,1.64,28.46,3.63a70.17,70.17,0,0,0,33.83-3.86A63.63,63.63,0,0,0,131.49,58a61.7,61.7,0,0,0,10.9-14.39c-2-3-17.17-25.88-46.85-29.28C92.52,14,66.13,11.41,44.94,30.78ZM116.86,28a4.66,4.66,0,1,1-4.65,4.66h0A4.65,4.65,0,0,1,116.86,28Z" style="fill:url(#Motivo_nuevo_2)"/><path d="M40.59,25.72A68.4,68.4,0,0,1,75.08,12.91a64.68,64.68,0,0,1,31.42,1.27c-2-1.55-30.24-22.5-64.26-10.48C11,14.75,1.12,44.35.08,47.65a10,10,0,0,0,6.1,10.58,10,10,0,0,0,12.48-5.39A68.31,68.31,0,0,1,40.59,25.72Z" style="fill:url(#Motivo_nuevo_2)"/><path d="M56.08,91.78a24.48,24.48,0,0,0,14.13-15l-9.72-3.29A24.43,24.43,0,0,1,56.08,91.78Z" style="fill:url(#Motivo_nuevo_2)"/><path d="M173.41,95.91a65.32,65.32,0,0,0-25.62-38.16C139.9,82.67,118.4,100.6,93.3,103.33,65,106.41,37.26,89.59,26.16,62c-2.93,9.74-4.72,39.15,13.07,61.86C68.3,161,117.56,165.79,167.69,140A65.2,65.2,0,0,0,173.41,95.91Z" style="fill:url(#Motivo_nuevo_2)"/></g></g><path d="M21.54,41.47H34a0,0,0,0,1,0,0v7.2a5.69,5.69,0,0,1-5.69,5.69H27.22a5.69,5.69,0,0,1-5.69-5.69v-7.2a0,0,0,0,1,0,0Z" transform="translate(75.67 20.16) rotate(90)" style="fill:#e8bb89"/><path d="M35.71,55.65H27.53a7.74,7.74,0,0,1,0-15.47h8.18ZM27.53,43.21a4.71,4.71,0,1,0,0,9.41h5.16V43.21Z" style="fill:#17202a"/><path d="M81.14,41.47H93.58a0,0,0,0,1,0,0v7.2a5.69,5.69,0,0,1-5.69,5.69H86.82a5.69,5.69,0,0,1-5.69-5.69v-7.2A0,0,0,0,1,81.14,41.47Z" transform="translate(39.44 135.27) rotate(-90)" style="fill:#e8bb89"/><path d="M87.58,55.65H79.4V40.18h8.18a7.74,7.74,0,0,1,0,15.47Zm-5.16-3h5.16a4.71,4.71,0,1,0,0-9.41H82.42Z" style="fill:#17202a"/><rect x="45.83" y="79.09" width="23.46" height="17.43" style="fill:#dbad7f"/><path d="M70.8,98H44.31V77.58H70.8ZM47.34,95H67.77V80.6H47.34Z" style="fill:#17202a"/><path d="M29.57,25.3h56a0,0,0,0,1,0,0v34A25.59,25.59,0,0,1,59.95,84.84H55.16A25.59,25.59,0,0,1,29.57,59.25v-34a0,0,0,0,1,0,0Z" style="fill:#edbf8e"/><path d="M57.56,86.36a29.54,29.54,0,0,1-29.5-29.5V23.78h59V56.86A29.53,29.53,0,0,1,57.56,86.36ZM31.08,26.81V56.86a26.48,26.48,0,0,0,53,0v-30Z" style="fill:#17202a"/><path d="M23.89,39.36s-4.07-12.59,0-19.7S37.22,1.75,53.82,1.5,76.26,9.09,76.26,9.09A11.37,11.37,0,0,0,80.91,11c3.32.77,10.22,5.58,11.29,14.23a32.62,32.62,0,0,1-2.33,16s-1.1.89-1.9-.84-3.32-.73-4-.36a5.42,5.42,0,0,1-5-.18c-2-1.26-4.53-2.92-5.83-5.1S71.44,35.84,68.85,37s-11.24,5.33-20.18,6.06S32.05,41.28,31,40.51s-2.14-1.07-3.11-.48-2.62,2.57-3.14,1.51A15,15,0,0,1,23.89,39.36Z" style="fill:#603404"/><path d="M45.34,44.68c-7.68,0-14-2-15.25-3-1-.69-1.32-.49-1.43-.42a8,8,0,0,0-.76.6c-1,.81-1.95,1.65-3.14,1.4a2,2,0,0,1-1.39-1.11,15.17,15.17,0,0,1-.92-2.4c-.27-.82-4.17-13.36.13-20.86C25.78,13.33,35.24.28,53.79,0h.8C70,0,76.32,6.79,77.34,8a11.43,11.43,0,0,0,3.91,1.54c4.38,1,11.36,6.63,12.45,15.49a33.76,33.76,0,0,1-2.46,16.8l-.14.32-.28.22a2.58,2.58,0,0,1-2.17.5A3,3,0,0,1,86.6,41l0-.06a3,3,0,0,0-1.93.42,6.89,6.89,0,0,1-6.49-.25,20.09,20.09,0,0,1-5.94-5,7.31,7.31,0,0,1-2.73,2.25l-.65.29c-3.13,1.42-11.47,5.2-20,5.9C47.62,44.64,46.46,44.68,45.34,44.68ZM29,38.22a5,5,0,0,1,2.92,1.09c.83.54,8.11,2.95,16.67,2.25,8-.66,16-4.27,19-5.63l.67-.3A5.19,5.19,0,0,0,70,34a3,3,0,0,1,2.43-1.5,2.7,2.7,0,0,1,2,1.46c1.19,2,3.88,3.69,5.33,4.59a3.91,3.91,0,0,0,3.49.11,6.06,6.06,0,0,1,4.28-.58A3.06,3.06,0,0,1,89,39.22a31.41,31.41,0,0,0,1.66-13.8c-1-8.33-7.79-12.41-10.13-12.95a12.69,12.69,0,0,1-5.31-2.26l-.12-.1L75.05,10c0-.06-5.7-7.23-21.21-7-16.38.24-25,11-28.63,17.4s.09,18.39.13,18.51V39s.11.39.3.9c.11-.08.2-.17.29-.24a9.34,9.34,0,0,1,1.14-.87A3.59,3.59,0,0,1,29,38.22Z" style="fill:#17202a"/><path d="M19.59,100.33h1.69a0,0,0,0,1,0,0v54.33a0,0,0,0,1,0,0H6.56a5.05,5.05,0,0,1-5.05-5.05v-31.2a18.08,18.08,0,0,1,18.08-18.08Z" style="fill:#2598dd"/><path d="M22.79,156.18H7.13A7.14,7.14,0,0,1,0,149.05V116.86a18.06,18.06,0,0,1,18-18h4.75ZM18,101.85a15,15,0,0,0-15,15v32.19a4.11,4.11,0,0,0,4.11,4.1H19.76v-51.3Z" style="fill:#17202a"/><path d="M96.85,100.33H113.6a0,0,0,0,1,0,0v54.33a0,0,0,0,1,0,0h-7.28A16.3,16.3,0,0,1,90,138.37v-31.2A6.83,6.83,0,0,1,96.85,100.33Z" transform="translate(203.62 255) rotate(180)" style="fill:#2598dd"/><path d="M108,156.18H88.51V98.82h8.56a18.06,18.06,0,0,1,18,18v32.19A7.14,7.14,0,0,1,108,156.18Zm-16.45-3H108a4.11,4.11,0,0,0,4.11-4.1V116.86a15,15,0,0,0-15-15H91.53Z" style="fill:#17202a"/><rect x="9.09" y="146.94" width="96.93" height="7.73" rx="3.53" style="fill:#dcdcdc"/><path d="M102.16,156.18H13a5.38,5.38,0,1,1,0-10.75h89.2a5.38,5.38,0,0,1,0,10.75ZM13,148.45a2.35,2.35,0,1,0,0,4.7h89.2a2.35,2.35,0,0,0,0-4.7Z" style="fill:#17202a"/><path d="M96.73,146.94H18.38a2.83,2.83,0,0,1-2.82-2.59L11.29,95.09A2.83,2.83,0,0,1,14.11,92H101a2.83,2.83,0,0,1,2.82,3.07l-4.27,49.26A2.83,2.83,0,0,1,96.73,146.94Z" style="fill:#eee"/><path d="M96.73,148.45H18.38a4.33,4.33,0,0,1-4.33-4L9.78,95.22a4.35,4.35,0,0,1,4.33-4.72H101a4.35,4.35,0,0,1,4.33,4.72l-4.27,49.26A4.32,4.32,0,0,1,96.73,148.45ZM14.11,93.53a1.29,1.29,0,0,0-1,.43,1.27,1.27,0,0,0-.34,1l4.26,49.26a1.32,1.32,0,0,0,1.32,1.21H96.73a1.32,1.32,0,0,0,1.32-1.21L102.31,95a1.27,1.27,0,0,0-.34-1,1.29,1.29,0,0,0-1-.43Z" style="fill:#17202a"/><path d="M48.9,109.86a13.2,13.2,0,0,0-3.62,5.67A13.17,13.17,0,0,0,48,120.15a3.47,3.47,0,0,1,1.47-1.94c1.49-.84,2.85.33,5.79.74a14.36,14.36,0,0,0,6.88-.79,12.78,12.78,0,0,0,4.33-2.77,12.39,12.39,0,0,0,2.22-2.92,13,13,0,0,0-19.82-2.61Zm13.68.38a.95.95,0,1,1,1,1,.94.94,0,0,1-1-1Z" style="fill:#2598dd"/><path d="M48,108.83a13.9,13.9,0,0,1,7-2.61,13.17,13.17,0,0,1,6.39.26c-.41-.31-6.15-4.57-13.07-2.13a14.42,14.42,0,0,0-8.57,8.94,2,2,0,0,0,3.78,1A13.84,13.84,0,0,1,48,108.83Z" style="fill:#2598dd"/><path d="M54,119.21l-2-.67a4.94,4.94,0,0,1-.9,3.72A4.94,4.94,0,0,0,54,119.21Z" style="fill:#2598dd"/><path d="M75,123.1a13.27,13.27,0,0,0-5.22-7.76,13,13,0,0,1-24.73.87,15.48,15.48,0,0,0,2.66,12.58c5.91,7.55,15.93,8.52,26.12,3.28A13.27,13.27,0,0,0,75,123.1Z" style="fill:#2598dd"/><path d="M52,51.35c-.45,4.73-2.65,7-7.32,7.61-.31,0-.62.07-.94.09s-.58,0-.88,0h-.12l-.79,0h-.1c-.3,0-.59,0-.88-.09s-.74-.12-1.1-.2a8.73,8.73,0,0,1-6.55-9.89c.18-1.11,1.06-1.5,1.94-1.84a18.8,18.8,0,0,1,6.62-.89h.17a17.81,17.81,0,0,1,7.82,1.44C51.9,48.52,52.23,49.13,52,51.35Z" style="fill:#eee"/><path d="M42,59.05h0Zm1.79,0c-.29,0-.58,0-.88,0C43.18,59.08,43.47,59.07,43.76,59.05Zm-1.89,0c-.3,0-.59,0-.88-.09C41.28,59,41.57,59,41.87,59Zm1,0h0Zm-.08,0-.79,0ZM41,59c-.37-.05-.74-.12-1.1-.2C40.25,58.83,40.62,58.9,41,59Z" style="fill:#17202a"/><path d="M81.87,50a4.58,4.58,0,0,1,0,.53q0,.52-.12,1a9.59,9.59,0,0,1-.2,1h0a8.52,8.52,0,0,1-.26.9c-.05.14-.1.28-.16.43a7.28,7.28,0,0,1-.37.8,8.06,8.06,0,0,1-.67,1.1,8.18,8.18,0,0,1-.53.64,7.58,7.58,0,0,1-2,1.55c-.25.13-.5.26-.77.37a10.39,10.39,0,0,1-4.11.77A12.72,12.72,0,0,1,71.08,59c-5.3-.58-7.5-2.87-8-8.17A2.76,2.76,0,0,1,64.59,48a14.2,14.2,0,0,1,5.89-1.7,9.83,9.83,0,0,1,1.09,0l1.86,0,1.24,0a14.67,14.67,0,0,1,5.12.76C81.62,47.64,82,48.16,81.87,50Z" style="fill:#eee"/><path d="M43.76,59.05c-.29,0-.58,0-.88,0C43.18,59.08,43.47,59.07,43.76,59.05Zm-1.89,0c-.3,0-.59,0-.88-.09C41.28,59,41.57,59,41.87,59Zm1,0h0Zm-.87,0h0Zm.79,0-.79,0ZM41,59c-.37-.05-.74-.12-1.1-.2C40.25,58.83,40.62,58.9,41,59Z" style="fill:#17202a"/><path d="M80.78,44.27a17.44,17.44,0,0,0-6.11-.94l-1.28,0h-.82l-1,0c-.51,0-.95,0-1.37.06a16.72,16.72,0,0,0-7.06,2.09,6.47,6.47,0,0,0-1.53,1.22v0a11,11,0,0,1-3.9.72,14.5,14.5,0,0,1-4-.63A8,8,0,0,0,51.13,45a20.83,20.83,0,0,0-9.06-1.72h-.2a21.26,21.26,0,0,0-7.62,1.09A5.22,5.22,0,0,0,30.5,48.4a11.63,11.63,0,0,0,1.8,8.3,11.33,11.33,0,0,0,7,4.86,16.53,16.53,0,0,0,3.59.4,17.08,17.08,0,0,0,2.24-.15c6-.8,9.23-4.13,9.8-10.19a10,10,0,0,0,0-1.62,15.74,15.74,0,0,0,2.78.26A14.68,14.68,0,0,0,60.24,50a7.54,7.54,0,0,0,0,1.06c.59,6.73,3.83,10.06,10.51,10.79a15.83,15.83,0,0,0,1.93.11,11.93,11.93,0,0,0,8.57-3.21,12.6,12.6,0,0,0,3.49-8.61C84.89,47,83.78,45.37,80.78,44.27ZM52,51.35c-.45,4.73-2.65,7-7.32,7.61-.31,0-.62.07-.94.09A13.47,13.47,0,0,1,41,59c-.37-.05-.74-.12-1.1-.2a8.73,8.73,0,0,1-6.55-9.89c.18-1.11,1.06-1.5,1.94-1.84a18.8,18.8,0,0,1,6.62-.89h.17a17.81,17.81,0,0,1,7.82,1.44C51.9,48.52,52.23,49.13,52,51.35ZM81.87,50a4.58,4.58,0,0,1,0,.53q0,.52-.12,1a9.59,9.59,0,0,1-.2,1h0a8.52,8.52,0,0,1-.26.9c-.05.14-.1.28-.16.43a7.28,7.28,0,0,1-.37.8,8.06,8.06,0,0,1-.67,1.1,8.18,8.18,0,0,1-.53.64,7.58,7.58,0,0,1-2,1.55c-.25.13-.5.26-.77.37a10.39,10.39,0,0,1-4.11.77A12.72,12.72,0,0,1,71.08,59c-5.3-.58-7.5-2.87-8-8.17A2.76,2.76,0,0,1,64.59,48a14.2,14.2,0,0,1,5.89-1.7,9.83,9.83,0,0,1,1.09,0l1.86,0,1.24,0a14.67,14.67,0,0,1,5.12.76C81.62,47.64,82,48.16,81.87,50Z" style="fill:#17202a"/><path d="M158.67,151.52H138a1.75,1.75,0,0,1-1.75-1.76V86.28a1.75,1.75,0,0,1,3.5,0V148h18.91a1.76,1.76,0,1,1,0,3.51Z" style="fill:#17202a"/><path d="M143.65,28.13a1.75,1.75,0,0,1-1.75-1.75V8.17H114a1.76,1.76,0,0,1,0-3.51h29.68a1.76,1.76,0,0,1,1.76,1.75v20A1.75,1.75,0,0,1,143.65,28.13Z" style="fill:#17202a"/><path d="M168.24,97a1.76,1.76,0,0,1-1.76-1.76V73.46a1.76,1.76,0,0,1,3.51,0V95.2A1.75,1.75,0,0,1,168.24,97Z" style="fill:#17202a"/><polygon points="170.81 39 143.74 54.63 116.68 39 143.74 23.37 170.81 39" style="fill:#ea2424"/><path d="M174.3,37.79,144.44,20.55a1.38,1.38,0,0,0-1.39,0L113.19,37.79a1.4,1.4,0,0,0-.7,1.21V73.48a1.4,1.4,0,0,0,.7,1.21l29.86,17.24a1.4,1.4,0,0,0,.69.19,1.44,1.44,0,0,0,.7-.19L174.3,74.69a1.4,1.4,0,0,0,.7-1.21V39A1.4,1.4,0,0,0,174.3,37.79ZM143.74,23.37,170.81,39,143.74,54.63,116.68,39ZM115.28,41.42l27.07,15.63V88.3L115.28,72.67Zm56.93,31.25L145.14,88.3V57.05l27.07-15.63Z" style="fill:#17202a"/><polygon points="142.35 57.05 142.35 88.3 115.28 72.67 115.28 41.42 142.35 57.05" style="fill:#feb60d"/><polygon points="172.21 41.42 172.21 72.67 145.14 88.3 145.14 57.05 172.21 41.42" style="fill:#2598dd"/><circle cx="109.31" cy="6.41" r="4.66" style="fill:#ea2424"/><path d="M109.31,12.83a6.42,6.42,0,1,1,6.42-6.42A6.43,6.43,0,0,1,109.31,12.83Zm0-9.32a2.91,2.91,0,1,0,2.91,2.9A2.91,2.91,0,0,0,109.31,3.51Z" style="fill:#17202a"/><circle cx="161.41" cy="149.76" r="4.66" style="fill:#feb60d"/><path d="M161.41,156.18a6.42,6.42,0,1,1,6.42-6.42A6.43,6.43,0,0,1,161.41,156.18Zm0-9.32a2.91,2.91,0,1,0,2.91,2.9A2.91,2.91,0,0,0,161.41,146.86Z" style="fill:#17202a"/><circle cx="168.24" cy="99.71" r="4.66" style="fill:#2598dd"/><path d="M168.24,106.13a6.42,6.42,0,1,1,6.41-6.42A6.43,6.43,0,0,1,168.24,106.13Zm0-9.32a2.91,2.91,0,1,0,2.91,2.9A2.9,2.9,0,0,0,168.24,96.81Z" style="fill:#17202a"/></svg>